<svg width="836" height="836" viewBox="0 0 836 836" fill="none" xmlns="http://www.w3.org/2000/svg">
<path d="M809.875 418C809.875 246.881 701.456 101.888 548.625 48.3313V787.669C701.456 734.113 809.875 589.119 809.875 418Z" fill="#ED4C5C"/>
<path d="M26.125 418C26.125 589.119 135.85 734.113 287.375 787.669V48.3313C135.85 101.888 26.125 246.881 26.125 418Z" fill="#75A843"/>
<path d="M548.625 48.3313C508.131 33.9625 463.719 26.125 418 26.125C372.281 26.125 327.869 33.9625 287.375 48.3313V787.669C327.869 802.037 372.281 809.875 418 809.875C463.719 809.875 508.131 802.037 548.625 787.669V48.3313Z" fill="white"/>
<path d="M531.644 414.081C530.338 410.162 529.031 415.387 529.031 416.694C529.031 412.775 527.725 410.162 525.113 406.244C521.194 410.162 519.888 415.387 519.888 420.612C518.581 416.694 517.275 412.775 513.356 411.469C515.969 415.387 514.663 418 514.663 421.919C514.663 427.144 518.581 431.062 518.581 436.287C518.581 441.512 515.969 445.431 512.05 449.35V445.431C498.988 450.656 501.6 457.187 501.6 468.944C501.6 480.7 495.069 478.087 487.231 484.619C488.538 482.006 488.538 478.087 487.231 475.475C487.231 483.312 476.781 483.312 475.475 489.844C474.169 492.456 475.475 497.681 471.556 498.987C468.944 500.294 465.025 502.906 465.025 505.519C462.412 504.212 459.8 504.212 455.881 504.212C457.188 502.906 458.494 502.906 459.8 501.6C446.738 495.069 442.819 509.437 431.063 510.744C427.144 510.744 418 505.519 418 510.744C429.756 510.744 434.981 521.194 444.125 521.194C451.963 521.194 458.494 514.662 466.331 514.662C465.025 514.662 461.106 512.05 457.188 512.05C463.719 508.131 467.638 500.294 475.475 500.294C488.538 500.294 495.069 497.681 498.988 484.619C497.681 484.619 496.375 484.619 495.069 485.925C495.069 480.7 500.294 474.169 505.519 471.556C518.581 468.944 517.275 458.494 525.113 449.35C522.5 449.35 519.887 450.656 517.275 453.269C517.275 445.431 515.969 437.594 522.5 432.369C535.563 425.837 534.256 423.225 531.644 414.081V414.081Z" fill="#75A843"/>
<path d="M304.356 414.081C301.744 424.531 300.437 427.144 310.887 433.675C318.725 438.9 316.112 446.737 316.112 454.575C313.5 451.962 312.194 450.656 308.275 450.656C316.112 458.494 314.806 470.25 327.869 472.862C331.787 475.475 338.319 482.006 338.319 487.231C337.012 487.231 335.706 485.925 334.4 485.925C338.319 498.987 344.85 501.6 357.912 501.6C365.75 501.6 369.669 509.437 376.2 513.356C372.281 513.356 368.362 514.662 367.056 515.969C374.894 515.969 381.425 523.806 389.262 522.5C398.406 522.5 404.937 512.05 415.387 512.05C415.387 506.825 406.244 512.05 402.325 512.05C391.875 509.437 387.956 496.375 373.587 501.6C374.894 502.906 376.2 504.212 377.506 504.212C374.894 504.212 370.975 502.906 368.362 505.519C367.056 502.906 364.444 500.294 361.831 498.987C359.219 496.375 359.219 492.456 357.912 489.844C355.3 483.312 346.156 482.006 346.156 475.475C344.85 478.087 344.85 482.006 346.156 484.619C338.319 478.087 331.787 480.7 331.787 468.944C331.787 458.494 334.4 450.656 321.337 445.431V449.35C317.419 445.431 314.806 442.819 314.806 436.287C314.806 431.062 320.031 427.144 318.725 421.919C318.725 418 317.419 415.387 320.031 411.469C316.112 412.775 314.806 416.694 313.5 420.612C313.5 415.387 312.194 410.162 308.275 406.244C306.969 408.856 305.662 412.775 304.356 416.694C305.662 414.081 304.356 410.162 304.356 414.081V414.081Z" fill="#75A843"/>
<path d="M453.269 492.456C450.656 492.456 449.35 489.844 448.044 488.537C448.044 485.925 458.494 483.312 459.8 483.312V480.7C442.819 485.925 391.875 489.844 381.425 471.556C376.2 479.394 367.056 474.169 357.912 467.637C359.219 470.25 364.444 483.312 364.444 482.006C367.056 483.312 384.037 487.231 384.037 491.15L380.119 495.069C407.55 504.212 424.531 506.825 453.269 492.456Z" fill="#428BC1"/>
<path d="M436.288 492.456C437.594 491.15 437.594 489.844 437.594 487.231L436.288 483.312C438.9 480.7 436.287 474.169 432.369 475.475C429.756 476.781 431.062 476.781 428.45 475.475C427.144 475.475 427.144 474.169 425.837 474.169H402.325C399.712 474.169 399.712 472.862 397.1 472.862C394.487 471.556 393.181 474.169 391.875 475.475C391.875 478.087 393.181 478.087 393.181 479.394C393.181 480.7 391.875 482.006 391.875 484.619C391.875 487.231 393.181 488.537 394.488 489.844C389.263 493.762 394.488 500.294 399.713 496.375C401.019 498.987 404.937 498.987 408.856 498.987H423.225C425.838 498.987 431.062 500.294 432.369 496.375C436.287 502.906 441.513 495.069 436.288 492.456Z" fill="#ED4C5C"/>
<path d="M478.087 458.494C467.637 445.431 462.412 465.025 450.656 463.719C453.269 448.044 429.756 453.269 423.225 457.188C424.531 455.881 425.837 453.269 427.144 450.656C421.919 450.656 415.387 453.269 411.469 449.35C403.631 444.125 393.181 441.513 386.65 450.656C381.425 442.819 367.056 434.981 359.219 442.819C359.219 434.981 351.381 423.225 342.237 424.531C331.787 425.838 335.706 438.9 340.931 444.125C344.85 448.044 350.075 449.35 355.3 449.35C355.3 451.963 356.606 453.269 357.912 454.575C364.444 459.8 377.506 461.106 384.037 455.881C384.037 468.944 410.162 468.944 416.694 462.413C414.081 468.944 411.469 482.006 420.612 482.006C428.45 482.006 425.837 474.169 432.369 471.556C437.594 468.944 444.125 467.638 449.35 470.25C458.494 475.475 487.231 474.169 478.087 458.494" fill="#428BC1"/>
<path d="M370.975 425.837C369.669 423.225 367.056 420.613 367.056 420.613C361.831 421.919 361.831 418 360.525 414.081C359.219 407.55 350.075 404.938 350.075 399.713C350.075 394.488 355.3 389.262 351.381 384.037C347.463 378.812 340.931 376.2 340.931 378.812C339.625 381.425 346.156 381.425 346.156 387.956C346.156 395.794 338.319 402.325 347.463 408.856C352.688 416.694 352.688 431.063 361.831 431.063C365.75 431.063 369.669 429.756 370.975 425.837" fill="#75A843"/>
<path d="M390.569 419.306C387.956 414.081 390.569 406.244 385.344 402.325C378.813 397.1 365.75 407.55 364.444 394.488C364.444 391.875 378.813 376.2 381.425 374.894C385.344 369.669 384.038 360.525 380.119 357.913C374.894 355.3 373.588 357.913 369.669 363.138C370.975 364.444 376.2 367.056 376.2 368.363C372.281 377.506 360.525 378.813 357.913 387.956C355.3 394.488 356.606 404.938 363.138 408.856C367.056 411.469 369.669 411.469 373.588 411.469C385.344 410.163 378.813 412.775 380.119 415.388C380.119 418 384.038 427.144 390.569 419.306" fill="#75A843"/>
<path d="M351.381 355.3C351.381 363.138 359.219 361.831 364.444 360.525C364.444 357.913 364.444 355.3 365.75 352.688C363.138 353.994 359.219 353.994 357.913 352.688C353.994 350.075 367.056 344.85 365.75 344.85C365.75 344.85 352.688 351.381 357.913 343.544C359.219 340.931 361.831 338.319 363.138 335.706C364.444 333.094 359.219 335.706 359.219 335.706C357.913 335.706 356.606 335.706 355.3 337.013C347.463 343.544 350.075 347.463 351.381 355.3" fill="#75A843"/>
<path d="M489.844 355.3C483.313 346.156 458.494 316.113 423.225 313.5C419.306 313.5 408.856 317.419 404.938 318.725C393.181 326.562 418 333.094 419.306 338.319C419.306 340.931 420.613 342.237 420.613 344.85C416.694 338.319 412.775 334.4 411.469 331.787C404.938 334.4 394.488 330.481 393.181 323.95C391.875 326.562 391.875 327.869 389.262 330.481C389.262 326.562 387.956 326.562 386.65 323.95C386.65 327.869 386.65 333.094 382.731 334.4C384.037 331.788 382.731 329.175 381.425 326.563C381.425 330.481 381.425 333.094 378.813 335.706C380.119 333.094 377.506 331.788 377.506 329.175C376.2 339.625 361.831 343.544 376.2 347.463C381.425 348.769 384.037 347.462 389.262 350.075C390.569 351.381 393.181 353.994 393.181 352.688C393.181 353.994 387.956 359.219 391.875 360.525C390.569 361.831 386.65 369.669 386.65 369.669C390.569 369.669 387.956 372.281 385.344 374.894C381.425 381.425 385.344 387.956 386.65 395.794C386.65 393.181 390.569 397.1 390.569 401.019C390.569 406.244 395.794 408.856 397.1 412.775C390.569 406.244 389.263 412.775 397.1 416.694C390.569 416.694 389.262 420.613 395.794 423.225C380.119 423.225 393.181 429.756 395.794 431.063C406.244 433.675 414.081 425.838 414.081 424.531C414.081 424.531 434.981 445.431 436.288 445.431C437.594 445.431 448.044 440.206 450.656 442.819C453.269 446.738 455.881 442.819 458.494 444.125C461.106 446.738 471.556 444.125 474.169 442.819C475.475 442.819 488.538 440.206 485.925 437.594C479.394 432.369 471.556 427.144 465.025 421.919C458.494 416.694 451.963 412.775 446.738 407.55C444.125 404.938 444.125 399.712 442.819 395.794C454.575 407.55 466.331 414.081 465.025 391.875C472.862 398.406 488.538 434.981 489.844 434.981C493.763 434.981 489.844 395.794 489.844 391.875C495.069 397.1 495.069 440.206 496.375 440.206C502.906 441.513 512.05 384.038 489.844 355.3" fill="#89664C"/>
<path d="M395.794 421.919C394.487 421.919 387.956 412.775 387.956 411.469C391.875 427.144 376.2 418 380.119 411.469C374.894 410.162 361.831 418 367.056 425.837C364.444 431.062 385.344 427.144 386.65 424.531C391.875 436.287 404.937 423.225 395.794 421.919" fill="#FFCE31"/>
<path d="M457.187 461.106C463.719 451.962 436.287 449.35 438.9 438.9C434.981 441.512 429.756 450.656 424.531 448.044C421.919 446.737 411.469 453.269 416.694 457.187C416.694 451.962 419.306 455.881 423.225 454.575C421.919 458.494 418 462.412 424.531 465.025C421.919 457.187 432.369 461.106 431.062 457.187C428.45 454.575 440.206 454.575 441.512 454.575C445.431 454.575 458.494 458.494 453.269 462.412C453.269 462.412 455.881 462.412 457.187 461.106" fill="#FFCE31"/>
<path d="M369.669 348.769C368.362 351.381 363.137 355.3 363.137 359.219C363.137 361.831 369.669 368.362 372.281 364.444C364.444 359.219 373.587 355.3 377.506 355.3C378.812 355.3 378.812 357.912 378.812 357.912C380.119 359.219 390.569 355.3 389.262 352.687C390.569 347.462 373.587 347.462 369.669 348.769Z" fill="#FFCE31"/>
</svg>
