<svg width="836" height="836" viewBox="0 0 836 836" fill="none" xmlns="http://www.w3.org/2000/svg">
<path d="M731.5 182.875H418V261.25H777.219C765.463 233.819 749.787 206.387 731.5 182.875Z" fill="#ED4C5C"/>
<path d="M802.038 496.375C807.263 471.556 809.875 445.431 809.875 418H26.125C26.125 445.431 28.7375 471.556 33.9625 496.375H802.038Z" fill="#F9F9F9"/>
<path d="M418 26.125V104.5H653.125C587.812 54.8625 506.825 26.125 418 26.125Z" fill="#ED4C5C"/>
<path d="M418 182.875H731.5C709.294 152.831 683.169 126.706 653.125 104.5H418V182.875Z" fill="#F9F9F9"/>
<path d="M777.219 261.25H418V339.625H802.038C796.813 312.194 787.669 286.069 777.219 261.25Z" fill="#F9F9F9"/>
<path d="M418 339.625V418H809.875C809.875 390.569 807.263 364.444 802.038 339.625H418Z" fill="#ED4C5C"/>
<path d="M58.7812 574.75H777.219C787.669 549.931 796.813 523.806 802.038 496.375H33.9625C39.1875 523.806 48.3312 549.931 58.7812 574.75Z" fill="#ED4C5C"/>
<path d="M104.5 653.125H731.5C749.787 629.613 765.463 602.181 777.219 574.75H58.7812C70.5375 602.181 86.2125 629.613 104.5 653.125Z" fill="#F9F9F9"/>
<path d="M104.5 653.125C126.706 683.169 152.831 709.294 182.875 731.5H653.125C683.169 709.294 709.294 683.169 731.5 653.125H104.5Z" fill="#ED4C5C"/>
<path d="M182.875 731.5C248.188 781.137 329.175 809.875 418 809.875C506.825 809.875 587.812 781.137 653.125 731.5H182.875Z" fill="#F9F9F9"/>
<path d="M418 26.125C201.162 26.125 26.125 201.162 26.125 418H418V26.125Z" fill="#2A5F9E"/>
<path d="M261.25 289.988L334.4 339.625L306.969 259.944L378.812 210.306H288.681L261.25 130.625L233.819 210.306H143.688L215.531 259.944L188.1 339.625L261.25 289.988Z" fill="white"/>
</svg>
