<svg width="100" height="100" viewBox="0 0 100 100" fill="none" xmlns="http://www.w3.org/2000/svg">
<path d="M96.875 50C96.875 29.5313 83.9062 12.1875 65.625 5.78125V94.2188C83.9062 87.8125 96.875 70.4688 96.875 50Z" fill="#ED4C5C"/>
<path d="M3.125 50C3.125 70.4688 16.25 87.8125 34.375 94.2188V5.78125C16.25 12.1875 3.125 29.5313 3.125 50Z" fill="#75A843"/>
<path d="M65.625 5.78125C60.7813 4.0625 55.4688 3.125 50 3.125C44.5312 3.125 39.2187 4.0625 34.375 5.78125V94.2187C39.2187 95.9375 44.5312 96.875 50 96.875C55.4688 96.875 60.7813 95.9375 65.625 94.2187V5.78125Z" fill="white"/>
<path d="M63.5938 49.5313C63.4375 49.0625 63.2813 49.6875 63.2813 49.8437C63.2813 49.375 63.125 49.0625 62.8125 48.5938C62.3438 49.0625 62.1875 49.6875 62.1875 50.3125C62.0313 49.8438 61.875 49.375 61.4063 49.2187C61.7188 49.6875 61.5625 50 61.5625 50.4687C61.5625 51.0937 62.0313 51.5625 62.0313 52.1875C62.0313 52.8125 61.7188 53.2813 61.25 53.75V53.2812C59.6875 53.9062 60 54.6875 60 56.0938C60 57.5 59.2188 57.1875 58.2813 57.9687C58.4375 57.6562 58.4375 57.1875 58.2813 56.875C58.2813 57.8125 57.0313 57.8125 56.875 58.5938C56.7188 58.9063 56.875 59.5313 56.4062 59.6875C56.0937 59.8438 55.625 60.1563 55.625 60.4688C55.3125 60.3125 55 60.3125 54.5313 60.3125C54.6875 60.1562 54.8438 60.1563 55 60C53.4375 59.2188 52.9688 60.9375 51.5625 61.0937C51.0938 61.0937 50 60.4687 50 61.0937C51.4063 61.0937 52.0313 62.3438 53.125 62.3438C54.0625 62.3438 54.8438 61.5625 55.7813 61.5625C55.625 61.5625 55.1563 61.25 54.6875 61.25C55.4688 60.7813 55.9375 59.8437 56.875 59.8437C58.4375 59.8437 59.2188 59.5312 59.6875 57.9687C59.5313 57.9687 59.375 57.9688 59.2188 58.125C59.2188 57.5 59.8438 56.7187 60.4688 56.4062C62.0313 56.0937 61.875 54.8438 62.8125 53.75C62.5 53.75 62.1875 53.9063 61.875 54.2188C61.875 53.2813 61.7188 52.3437 62.5 51.7187C64.0625 50.9375 63.9063 50.625 63.5938 49.5313V49.5313Z" fill="#75A843"/>
<path d="M36.4063 49.5313C36.0938 50.7813 35.9375 51.0938 37.1875 51.875C38.125 52.5 37.8125 53.4375 37.8125 54.375C37.5 54.0625 37.3438 53.9063 36.875 53.9063C37.8125 54.8438 37.6563 56.25 39.2188 56.5625C39.6875 56.875 40.4688 57.6563 40.4688 58.2813C40.3125 58.2813 40.1563 58.125 40 58.125C40.4688 59.6875 41.25 60 42.8125 60C43.75 60 44.2188 60.9375 45 61.4063C44.5313 61.4063 44.0625 61.5625 43.9063 61.7188C44.8438 61.7188 45.625 62.6563 46.5625 62.5C47.6563 62.5 48.4375 61.25 49.6875 61.25C49.6875 60.625 48.5938 61.25 48.125 61.25C46.875 60.9375 46.4063 59.375 44.6875 60C44.8438 60.1563 45 60.3125 45.1563 60.3125C44.8438 60.3125 44.375 60.1563 44.0625 60.4688C43.9063 60.1563 43.5938 59.8438 43.2813 59.6875C42.9688 59.375 42.9688 58.9063 42.8125 58.5938C42.5 57.8125 41.4063 57.6563 41.4063 56.875C41.25 57.1875 41.25 57.6562 41.4063 57.9687C40.4688 57.1875 39.6875 57.5 39.6875 56.0938C39.6875 54.8438 40 53.9062 38.4375 53.2812V53.75C37.9688 53.2813 37.6563 52.9688 37.6563 52.1875C37.6563 51.5625 38.2813 51.0937 38.125 50.4687C38.125 50 37.9688 49.6875 38.2813 49.2187C37.8125 49.375 37.6563 49.8438 37.5 50.3125C37.5 49.6875 37.3438 49.0625 36.875 48.5938C36.7188 48.9063 36.5625 49.375 36.4063 49.8437C36.5625 49.5312 36.4063 49.0625 36.4063 49.5313V49.5313Z" fill="#75A843"/>
<path d="M54.2188 58.9062C53.9063 58.9062 53.75 58.5937 53.5937 58.4375C53.5937 58.125 54.8437 57.8125 55 57.8125V57.5C52.9688 58.125 46.875 58.5937 45.625 56.4062C45 57.3437 43.9062 56.7187 42.8125 55.9375C42.9687 56.25 43.5937 57.8125 43.5937 57.6563C43.9062 57.8125 45.9375 58.2812 45.9375 58.75L45.4688 59.2187C48.75 60.3125 50.7813 60.625 54.2188 58.9062Z" fill="#428BC1"/>
<path d="M52.1875 58.9064C52.3438 58.7501 52.3438 58.5938 52.3438 58.2814L52.1875 57.8126C52.5 57.5001 52.1875 56.7189 51.7187 56.8751C51.4062 57.0314 51.5625 57.0314 51.25 56.8751C51.0937 56.8751 51.0937 56.7189 50.9375 56.7189H48.125C47.8125 56.7189 47.8125 56.5626 47.5 56.5626C47.1875 56.4064 47.0313 56.7189 46.875 56.8751C46.875 57.1876 47.0313 57.1876 47.0313 57.3439C47.0313 57.5001 46.875 57.6563 46.875 57.9688C46.875 58.2813 47.0313 58.4376 47.1875 58.5939C46.5625 59.0626 47.1875 59.8439 47.8125 59.3751C47.9688 59.6876 48.4375 59.6876 48.9062 59.6876H50.625C50.9375 59.6876 51.5625 59.8439 51.7187 59.3751C52.1875 60.1563 52.8125 59.2189 52.1875 58.9064Z" fill="#ED4C5C"/>
<path d="M57.1875 54.8438C55.9375 53.2813 55.3125 55.625 53.9063 55.4688C54.2188 53.5938 51.4063 54.2188 50.625 54.6875C50.7813 54.5313 50.9375 54.2188 51.0938 53.9063C50.4688 53.9063 49.6875 54.2188 49.2188 53.75C48.2813 53.125 47.0313 52.8125 46.25 53.9063C45.625 52.9688 43.9063 52.0313 42.9688 52.9688C42.9688 52.0313 42.0313 50.625 40.9375 50.7813C39.6875 50.9375 40.1563 52.5 40.7813 53.125C41.25 53.5938 41.875 53.75 42.5 53.75C42.5 54.0625 42.6563 54.2188 42.8125 54.375C43.5938 55 45.1563 55.1563 45.9375 54.5313C45.9375 56.0938 49.0625 56.0938 49.8438 55.3125C49.5313 56.0938 49.2188 57.6563 50.3125 57.6563C51.25 57.6563 50.9375 56.7188 51.7188 56.4063C52.3438 56.0938 53.125 55.9375 53.75 56.25C54.8438 56.875 58.2813 56.7188 57.1875 54.8438" fill="#428BC1"/>
<path d="M44.375 50.9375C44.2187 50.625 43.9062 50.3125 43.9062 50.3125C43.2812 50.4688 43.2812 50 43.125 49.5313C42.9687 48.75 41.875 48.4375 41.875 47.8125C41.875 47.1875 42.5 46.5625 42.0312 45.9375C41.5625 45.3125 40.7812 45 40.7812 45.3125C40.625 45.625 41.4062 45.625 41.4062 46.4063C41.4062 47.3438 40.4687 48.125 41.5625 48.9063C42.1875 49.8438 42.1875 51.5625 43.2812 51.5625C43.75 51.5625 44.2187 51.4063 44.375 50.9375" fill="#75A843"/>
<path d="M46.7187 50.1563C46.4062 49.5313 46.7187 48.5938 46.0937 48.125C45.3125 47.5 43.75 48.75 43.5937 47.1875C43.5937 46.875 45.3125 45 45.625 44.8438C46.0937 44.2188 45.9375 43.125 45.4687 42.8125C44.8437 42.5 44.6875 42.8125 44.2187 43.4375C44.375 43.5938 45 43.9063 45 44.0625C44.5312 45.1563 43.125 45.3125 42.8125 46.4063C42.5 47.1875 42.6562 48.4375 43.4375 48.9063C43.9062 49.2188 44.2187 49.2188 44.6875 49.2188C46.0937 49.0625 45.3125 49.375 45.4687 49.6875C45.4687 50 45.9375 51.0938 46.7187 50.1563" fill="#75A843"/>
<path d="M42.0312 42.5C42.0312 43.4375 42.9687 43.2812 43.5937 43.125C43.5937 42.8125 43.5937 42.5 43.75 42.1875C43.4375 42.3437 42.9687 42.3437 42.8125 42.1875C42.3437 41.875 43.9062 41.25 43.75 41.25C43.75 41.25 42.1875 42.0312 42.8125 41.0937C42.9687 40.7812 43.2812 40.4687 43.4375 40.1562C43.5937 39.8437 42.9687 40.1562 42.9687 40.1562C42.8125 40.1562 42.6562 40.1562 42.5 40.3125C41.5625 41.0937 41.875 41.5625 42.0312 42.5" fill="#75A843"/>
<path d="M58.5937 42.5C57.8125 41.4063 54.8437 37.8125 50.625 37.5C50.1562 37.5 48.9062 37.9687 48.4375 38.125C47.0312 39.0625 50 39.8437 50.1562 40.4687C50.1562 40.7812 50.3125 40.9375 50.3125 41.25C49.8437 40.4687 49.375 40 49.2187 39.6875C48.4375 40 47.1875 39.5312 47.0312 38.75C46.875 39.0625 46.875 39.2187 46.5625 39.5312C46.5625 39.0625 46.4062 39.0625 46.25 38.75C46.25 39.2187 46.25 39.8438 45.7812 40C45.9375 39.6875 45.7812 39.375 45.625 39.0625C45.625 39.5312 45.625 39.8438 45.3125 40.1563C45.4687 39.8438 45.1562 39.6875 45.1562 39.375C45 40.625 43.2812 41.0938 45 41.5625C45.625 41.7188 45.9375 41.5625 46.5625 41.875C46.7187 42.0312 47.0312 42.3437 47.0312 42.1875C47.0312 42.3437 46.4062 42.9688 46.875 43.125C46.7187 43.2813 46.25 44.2187 46.25 44.2187C46.7187 44.2187 46.4062 44.5313 46.0937 44.8438C45.625 45.625 46.0937 46.4062 46.25 47.3437C46.25 47.0312 46.7187 47.5 46.7187 47.9688C46.7187 48.5938 47.3437 48.9062 47.5 49.375C46.7187 48.5937 46.5625 49.375 47.5 49.8437C46.7187 49.8437 46.5625 50.3125 47.3437 50.625C45.4687 50.625 47.0312 51.4062 47.3437 51.5625C48.5937 51.875 49.5312 50.9375 49.5312 50.7812C49.5312 50.7812 52.0312 53.2812 52.1875 53.2812C52.3437 53.2812 53.5937 52.6563 53.9062 52.9688C54.2187 53.4375 54.5312 52.9687 54.8437 53.125C55.1562 53.4375 56.4062 53.125 56.7187 52.9688C56.875 52.9688 58.4375 52.6562 58.125 52.3437C57.3437 51.7187 56.4062 51.0937 55.625 50.4687C54.8437 49.8437 54.0625 49.375 53.4375 48.75C53.125 48.4375 53.125 47.8125 52.9687 47.3437C54.375 48.75 55.7812 49.5312 55.625 46.875C56.5625 47.6562 58.4375 52.0312 58.5937 52.0312C59.0625 52.0312 58.5937 47.3437 58.5937 46.875C59.2187 47.5 59.2187 52.6563 59.375 52.6563C60.1562 52.8125 61.25 45.9375 58.5937 42.5" fill="#89664C"/>
<path d="M47.3437 50.4686C47.1875 50.4686 46.4062 49.3748 46.4062 49.2186C46.875 51.0936 45 49.9998 45.4687 49.2186C44.8437 49.0623 43.2812 49.9998 43.9062 50.9373C43.5937 51.5623 46.0937 51.0936 46.25 50.7811C46.875 52.1873 48.4375 50.6248 47.3437 50.4686" fill="#FFCE31"/>
<path d="M54.6875 55.1563C55.4687 54.0625 52.1875 53.75 52.5 52.5C52.0312 52.8125 51.4062 53.9063 50.7812 53.5938C50.4687 53.4375 49.2187 54.2188 49.8437 54.6875C49.8437 54.0625 50.1562 54.5313 50.625 54.375C50.4687 54.8438 50 55.3125 50.7812 55.625C50.4687 54.6875 51.7187 55.1563 51.5625 54.6875C51.25 54.375 52.6562 54.375 52.8125 54.375C53.2812 54.375 54.8437 54.8438 54.2187 55.3125C54.2187 55.3125 54.5312 55.3125 54.6875 55.1563" fill="#FFCE31"/>
<path d="M44.2187 41.7186C44.0625 42.0311 43.4375 42.4999 43.4375 42.9686C43.4375 43.2811 44.2188 44.0624 44.5312 43.5936C43.5938 42.9686 44.6875 42.4999 45.1562 42.4999C45.3125 42.4999 45.3125 42.8124 45.3125 42.8124C45.4687 42.9686 46.7187 42.4999 46.5625 42.1874C46.7187 41.5624 44.6875 41.5624 44.2187 41.7186Z" fill="#FFCE31"/>
</svg>
