<svg width="100" height="100" viewBox="0 0 100 100" fill="none" xmlns="http://www.w3.org/2000/svg">
<path d="M87.5 21.875H50V31.25H92.9688C91.5625 27.9688 89.6875 24.6875 87.5 21.875Z" fill="#ED4C5C"/>
<path d="M95.9375 59.375C96.5625 56.4063 96.875 53.2812 96.875 50H3.125C3.125 53.2812 3.4375 56.4063 4.0625 59.375H95.9375Z" fill="#F9F9F9"/>
<path d="M50 3.125V12.5H78.125C70.3125 6.5625 60.625 3.125 50 3.125Z" fill="#ED4C5C"/>
<path d="M50 21.875H87.5C84.8437 18.2813 81.7187 15.1563 78.125 12.5H50V21.875Z" fill="#F9F9F9"/>
<path d="M92.9688 31.25H50V40.625H95.9375C95.3125 37.3438 94.2188 34.2187 92.9688 31.25Z" fill="#F9F9F9"/>
<path d="M50 40.625V50H96.875C96.875 46.7188 96.5625 43.5937 95.9375 40.625H50Z" fill="#ED4C5C"/>
<path d="M7.03125 68.75H92.9687C94.2187 65.7813 95.3125 62.6562 95.9375 59.375H4.0625C4.6875 62.6562 5.78125 65.7813 7.03125 68.75Z" fill="#ED4C5C"/>
<path d="M12.5 78.125H87.5C89.6875 75.3125 91.5625 72.0312 92.9688 68.75H7.03125C8.4375 72.0312 10.3125 75.3125 12.5 78.125Z" fill="#F9F9F9"/>
<path d="M12.5 78.125C15.1563 81.7187 18.2813 84.8437 21.875 87.5H78.125C81.7187 84.8437 84.8437 81.7187 87.5 78.125H12.5Z" fill="#ED4C5C"/>
<path d="M21.875 87.5C29.6875 93.4375 39.375 96.875 50 96.875C60.625 96.875 70.3125 93.4375 78.125 87.5H21.875Z" fill="#F9F9F9"/>
<path d="M50 3.125C24.0625 3.125 3.125 24.0625 3.125 50H50V3.125Z" fill="#2A5F9E"/>
<path d="M31.25 34.6875L40 40.625L36.7188 31.0937L45.3125 25.1563H34.5313L31.25 15.625L27.9687 25.1563H17.1875L25.7812 31.0937L22.5 40.625L31.25 34.6875Z" fill="white"/>
</svg>
