<svg width="718" height="652" viewBox="0 0 718 652" fill="none" xmlns="http://www.w3.org/2000/svg">
<path d="M454.202 651.34H197.142C193.062 651.34 189.152 649.72 186.272 646.84L4.50226 465.07C0.102262 460.67 -1.20774 454.06 1.17226 448.32C3.55226 442.58 9.15227 438.83 15.3723 438.83H204.652C213.142 438.83 220.022 445.71 220.022 454.2C220.022 462.69 213.142 469.57 204.652 469.57H52.4823L203.512 620.59H447.842L620.602 447.83V203.51L447.842 30.74H197.142C188.652 30.74 181.772 23.86 181.772 15.37C181.772 6.88 188.652 0 197.142 0H454.202C458.282 0 462.192 1.62 465.072 4.5L646.842 186.27C649.722 189.15 651.342 193.06 651.342 197.14V454.2C651.342 458.28 649.722 462.19 646.842 465.07L465.072 646.84C462.192 649.72 458.282 651.34 454.202 651.34Z" fill="white"/>
<path d="M152.162 448.51C152.162 454.88 149.942 460.24 145.522 464.57C141.092 468.91 135.702 471.07 129.322 471.07C122.952 471.07 117.592 468.9 113.262 464.57C108.922 460.23 106.762 454.88 106.762 448.51V221.76C106.762 216.1 109.112 210.92 113.802 206.23C118.492 201.54 123.672 199.19 129.332 199.19C135.172 199.19 140.352 201.49 144.862 206.09C149.382 210.69 151.632 215.91 151.632 221.76C151.632 251.32 151.722 289.11 151.902 335.13C152.072 381.16 152.162 418.95 152.162 448.51Z" fill="#5C8EF2"/>
<path d="M544.382 449.31C544.382 453.2 543.582 456.66 541.992 459.66C540.392 462.67 538.492 464.84 536.282 466.16C534.072 467.49 531.812 468.6 529.512 469.48C527.212 470.37 525.262 470.9 523.672 471.07H521.282C520.752 471.07 519.952 471.03 518.892 470.94C517.832 470.85 516.012 470.37 513.452 469.48C510.882 468.6 508.632 467.49 506.682 466.16C504.732 464.83 502.962 462.67 501.372 459.66C499.782 456.65 498.982 453.2 498.982 449.31V357.71H386.132H339.662H226.822V449.31C226.822 453.2 226.062 456.66 224.562 459.66C223.052 462.67 221.192 464.84 218.982 466.16C216.772 467.49 214.562 468.6 212.342 469.48C210.122 470.37 208.312 470.9 206.902 471.07H204.512C203.802 471.07 202.962 471.03 201.992 470.94C201.012 470.85 199.202 470.37 196.552 469.48C193.892 468.6 191.542 467.49 189.512 466.16C187.472 464.83 185.622 462.67 183.942 459.66C182.252 456.65 181.422 453.2 181.422 449.31V289.73C181.422 264.77 190.272 243.44 207.972 225.74C225.672 208.04 247.002 199.19 271.962 199.19H294.262H431.532H453.842C478.802 199.19 500.122 208.04 517.832 225.74C535.532 243.44 544.382 264.77 544.382 289.73V449.31ZM386.132 312.57H498.972V290.27C498.972 277.7 494.552 267 485.702 258.14C476.852 249.29 466.232 244.86 453.842 244.86H363.032H271.962C259.572 244.86 248.952 249.29 240.102 258.14C231.252 266.99 226.832 277.7 226.832 290.27V312.57H339.672H386.132Z" fill="#5C8EF2"/>
<path d="M703.602 223.16C700.012 223.16 696.612 224.57 694.052 227.13L690.232 230.95L682.442 223.16L688.552 217.05V170.05L681.482 162.98L690.692 153.77L694.552 157.63C697.072 160.15 700.452 161.53 704.032 161.53C704.082 161.53 704.132 161.53 704.182 161.53C707.732 161.49 711.102 160.12 713.622 157.6C716.072 155.15 717.482 151.91 717.592 148.43C717.782 144.65 716.372 141.09 713.692 138.42L686.942 111.67C684.382 109.11 680.942 107.74 677.272 107.74C673.682 107.82 670.282 109.23 667.762 111.75C665.202 114.31 663.792 117.71 663.792 121.3C663.792 124.89 665.202 128.29 667.762 130.85L671.582 134.67L662.372 143.88L655.302 136.81H608.302L602.192 142.92L593.482 134.21L597.342 130.35C599.902 127.79 601.312 124.39 601.242 120.72C601.242 117.13 599.832 113.8 597.302 111.28C594.852 108.83 591.612 107.42 588.132 107.31C587.902 107.3 587.682 107.29 587.452 107.29C583.922 107.29 580.632 108.69 578.122 111.2L551.372 137.95C548.812 140.51 547.432 143.95 547.512 147.62C547.512 151.21 548.922 154.61 551.452 157.13C554.012 159.69 557.412 161.1 561.002 161.1C564.592 161.1 567.992 159.68 570.552 157.13L574.372 153.31L583.082 162.02L575.062 170.04V217.04L582.132 224.11L574.832 231.41L570.972 227.55C568.412 224.99 564.972 223.61 561.302 223.61C557.752 223.65 554.422 225.06 551.902 227.58C549.452 230.03 548.042 233.27 547.892 236.71C547.742 240.53 549.152 244.08 551.832 246.76L578.582 273.51C581.112 276.04 584.492 277.41 588.062 277.41C588.112 277.41 588.162 277.41 588.212 277.41C591.842 277.37 595.242 275.96 597.762 273.44C600.322 270.88 601.732 267.48 601.732 263.89C601.732 260.3 600.322 256.9 597.762 254.34L593.942 250.52L601.242 243.22L608.312 250.29H655.312L663.332 242.27L671.122 250.06L667.262 253.92C664.702 256.48 663.322 259.92 663.362 263.55C663.362 267.14 664.772 270.47 667.302 272.99C669.742 275.44 672.992 276.85 676.512 277C676.692 277.01 676.882 277.01 677.062 277.01C680.602 277.01 683.942 275.61 686.482 273.06L713.232 246.31C715.792 243.75 717.172 240.31 717.132 236.68C717.092 233.05 715.682 229.65 713.162 227.13C710.592 224.58 707.192 223.16 703.602 223.16Z" fill="#5C8EF2"/>
</svg>
