<svg width="872" height="562" viewBox="0 0 872 562" fill="none" xmlns="http://www.w3.org/2000/svg">
<path d="M581.01 449.33H762.53C765.17 449.33 767.38 450.23 769.17 452.02C770.96 453.81 771.86 456.03 771.86 458.66C771.86 461.44 771 463.71 769.28 465.47C767.56 467.23 765.31 468.1 762.53 468.1H581.01C576.03 468.1 571.68 469.35 567.94 471.83C564.21 474.32 562.34 477.76 562.34 482.15C562.34 486.25 564.28 489.62 568.16 492.25C572.04 494.88 576.32 496.2 581.01 496.2H665.33C675.28 496.2 684.03 499.35 691.57 505.64C699.11 511.94 702.88 519.77 702.88 529.14C702.88 538.51 699.13 546.29 691.63 552.47C684.13 558.66 675.36 561.75 665.33 561.75H517.49C514.86 561.75 512.64 560.85 510.85 559.06C509.06 557.27 508.16 555.05 508.16 552.42C508.16 549.86 509.09 547.64 510.96 545.78C512.83 543.91 515 542.98 517.49 542.98H665.33C670.38 542.98 674.77 541.74 678.5 539.25C682.23 536.76 684.1 533.32 684.1 528.93C684.1 524.69 682.2 521.28 678.39 518.72C674.58 516.16 670.23 514.88 665.32 514.88H581.01C571.06 514.88 562.33 511.73 554.82 505.44C547.32 499.15 543.57 491.32 543.57 481.94C543.57 472.64 547.34 464.89 554.88 458.66C562.42 452.45 571.13 449.33 581.01 449.33Z" fill="#0D0D0D"/>
<path d="M150.07 552.76C150.07 554.37 149.74 555.8 149.08 557.04C148.42 558.28 147.63 559.18 146.72 559.73C145.8 560.28 144.87 560.74 143.92 561.1C142.97 561.47 142.16 561.69 141.51 561.76H140.52C140.3 561.76 139.97 561.74 139.53 561.71C139.09 561.67 138.34 561.47 137.28 561.11C136.22 560.74 135.28 560.29 134.48 559.74C133.67 559.19 132.94 558.3 132.28 557.05C131.62 555.81 131.29 554.38 131.29 552.77V514.88H84.63H65.42H18.76V552.76C18.76 554.37 18.45 555.8 17.83 557.04C17.21 558.28 16.44 559.18 15.52 559.73C14.6 560.28 13.69 560.74 12.78 561.1C11.86 561.47 11.11 561.69 10.53 561.76H9.54C9.25 561.76 8.9 561.74 8.5 561.71C8.1 561.67 7.35 561.47 6.25 561.11C5.15 560.74 4.18 560.29 3.34 559.74C2.5 559.19 1.73 558.3 1.04 557.05C0.340001 555.81 0 554.38 0 552.77V486.78C0 476.46 3.66 467.64 10.98 460.32C18.3 453 27.12 449.34 37.44 449.34H46.66H103.42H112.64C122.96 449.34 131.78 453 139.1 460.32C146.42 467.64 150.08 476.46 150.08 486.78V552.76H150.07ZM84.64 496.22H131.3V487C131.3 481.8 129.47 477.38 125.81 473.72C122.15 470.06 117.76 468.23 112.64 468.23H75.09H37.43C32.31 468.23 27.91 470.06 24.26 473.72C20.6 477.38 18.77 481.81 18.77 487V496.22H65.43H84.64Z" fill="#0D0D0D"/>
<path d="M487.23 552.76C487.23 554.37 486.9 555.8 486.24 557.04C485.58 558.28 484.79 559.18 483.88 559.73C482.96 560.28 482.03 560.74 481.08 561.1C480.13 561.47 479.32 561.69 478.67 561.76H477.68C477.46 561.76 477.13 561.74 476.69 561.71C476.25 561.67 475.5 561.47 474.44 561.11C473.38 560.74 472.44 560.29 471.64 559.74C470.83 559.19 470.1 558.3 469.44 557.05C468.78 555.81 468.45 554.38 468.45 552.77V514.88H421.79H402.58H355.92V552.76C355.92 554.37 355.61 555.8 354.99 557.04C354.37 558.28 353.6 559.18 352.68 559.73C351.76 560.28 350.85 560.74 349.94 561.1C349.02 561.47 348.27 561.69 347.69 561.76H346.7C346.41 561.76 346.06 561.74 345.66 561.71C345.26 561.67 344.51 561.47 343.41 561.11C342.31 560.74 341.34 560.29 340.5 559.74C339.66 559.19 338.89 558.3 338.2 557.05C337.5 555.81 337.16 554.38 337.16 552.77V486.78C337.16 476.46 340.82 467.64 348.14 460.32C355.46 453 364.28 449.34 374.6 449.34H383.81H440.57H449.79C460.11 449.34 468.93 453 476.25 460.32C483.57 467.64 487.23 476.46 487.23 486.78V552.76V552.76ZM421.8 496.22H468.46V487C468.46 481.8 466.63 477.38 462.97 473.72C459.31 470.06 454.92 468.23 449.8 468.23H412.25H374.59C369.47 468.23 365.07 470.06 361.42 473.72C357.76 477.38 355.93 481.81 355.93 487V496.22H402.59H421.8Z" fill="#0D0D0D"/>
<path d="M309.05 542.99C311.69 542.99 313.79 543.78 315.36 545.35C316.93 546.92 317.87 548.52 318.16 550.13L318.6 552.44C318.6 552.66 318.56 552.99 318.49 553.43C318.42 553.87 318.18 554.62 317.78 555.68C317.38 556.74 316.86 557.69 316.24 558.53C315.62 559.37 314.66 560.12 313.38 560.78C312.1 561.44 310.65 561.77 309.04 561.77H187.62C182.93 561.77 178.62 559.81 174.66 555.9C170.71 551.98 168.73 547.68 168.73 543V458.68C168.73 455.9 169.53 453.74 171.15 452.2C172.76 450.66 174.37 449.78 175.98 449.57L178.28 449.35C178.5 449.35 178.83 449.37 179.27 449.4C179.71 449.44 180.46 449.62 181.52 449.95C182.58 450.28 183.51 450.76 184.32 451.38C185.12 452 185.86 452.97 186.52 454.29C187.18 455.61 187.51 457.15 187.51 458.9V533.67C187.51 536.09 188.5 538.25 190.47 540.15C192.45 542.05 194.57 543.01 196.84 543.01H309.05V542.99Z" fill="#0D0D0D"/>
<path d="M524.91 552.43C524.91 555.07 523.99 557.28 522.16 559.07C520.33 560.86 518.1 561.76 515.46 561.76C512.83 561.76 510.61 560.86 508.82 559.07C507.03 557.28 506.13 555.06 506.13 552.43V458.67C506.13 456.33 507.1 454.19 509.04 452.25C510.98 450.31 513.12 449.34 515.46 449.34C517.88 449.34 520.02 450.29 521.88 452.19C523.75 454.09 524.68 456.25 524.68 458.67C524.68 470.9 524.72 486.52 524.79 505.55C524.87 524.58 524.91 540.21 524.91 552.43Z" fill="#5C8EF2"/>
<path d="M871.63 552.76C871.63 554.37 871.3 555.8 870.64 557.04C869.98 558.28 869.19 559.18 868.28 559.73C867.36 560.28 866.43 560.74 865.48 561.1C864.53 561.47 863.72 561.69 863.07 561.76H862.08C861.86 561.76 861.53 561.74 861.09 561.71C860.65 561.67 859.9 561.47 858.84 561.11C857.78 560.74 856.84 560.29 856.04 559.74C855.23 559.19 854.5 558.3 853.84 557.05C853.18 555.81 852.85 554.38 852.85 552.77V514.88H806.19H786.98H740.32V552.76C740.32 554.37 740.01 555.8 739.39 557.04C738.77 558.28 738 559.18 737.08 559.73C736.16 560.28 735.25 560.74 734.34 561.1C733.42 561.47 732.67 561.69 732.09 561.76H731.1C730.81 561.76 730.46 561.74 730.06 561.71C729.66 561.67 728.91 561.47 727.81 561.11C726.71 560.74 725.74 560.29 724.9 559.74C724.06 559.19 723.29 558.3 722.6 557.05C721.9 555.81 721.56 554.38 721.56 552.77V486.78C721.56 476.46 725.22 467.64 732.54 460.32C739.86 453 748.68 449.34 759 449.34H768.22H824.98H834.2C844.52 449.34 853.34 453 860.66 460.32C867.98 467.64 871.64 476.46 871.64 486.78V552.76H871.63ZM806.2 496.22H852.86V487C852.86 481.8 851.03 477.38 847.37 473.72C843.71 470.06 839.32 468.23 834.2 468.23H796.65H758.99C753.87 468.23 749.47 470.06 745.82 473.72C742.16 477.38 740.33 481.81 740.33 487V496.22H786.99H806.2Z" fill="#5C8EF2"/>
<path d="M611.47 534.57C611.06 534.57 610.7 534.42 610.42 534.15L599.78 523.51C599.47 523.2 599.32 522.82 599.34 522.39C599.36 521.99 599.52 521.61 599.81 521.32C600.1 521.03 600.47 520.87 600.87 520.87C601.14 520.87 601.59 520.95 601.95 521.31L606.21 525.57L614.56 517.22L610.15 512.81V497.31L614.94 492.52L606.03 483.61L601.79 487.85C601.49 488.15 601.12 488.3 600.71 488.3C600.3 488.3 599.93 488.14 599.63 487.85C599.35 487.57 599.19 487.19 599.19 486.79C599.18 486.3 599.32 485.94 599.6 485.67L610.24 475.03C610.53 474.75 610.86 474.6 611.23 474.6C611.78 474.62 612.14 474.78 612.43 475.06C612.72 475.35 612.87 475.7 612.87 476.09C612.88 476.56 612.74 476.91 612.45 477.2L608.2 481.46L617.11 490.37L621.14 486.34H636.65L641.06 490.75L650.17 481.64L645.93 477.4C645.63 477.1 645.48 476.73 645.48 476.32C645.48 475.91 645.64 475.54 645.93 475.24C646.22 474.95 646.63 474.78 647.07 474.77C647.3 474.77 647.75 474.85 648.11 475.21L658.75 485.85C659.06 486.15 659.2 486.51 659.18 486.92C659.16 487.39 659.01 487.75 658.72 488.04C658.36 488.4 657.94 488.48 657.64 488.48C657.21 488.48 656.85 488.33 656.58 488.06L652.32 483.8L643.22 492.91L647.63 497.32V512.82L643.61 516.85L652.15 525.39L656.39 521.15C656.69 520.85 657.06 520.7 657.47 520.7C657.88 520.7 658.25 520.86 658.55 521.15C658.84 521.44 659 521.83 659 522.27C659 522.69 658.86 523.06 658.58 523.34L647.94 533.98C647.65 534.27 647.3 534.42 646.91 534.42C646.42 534.4 646.04 534.24 645.75 533.95C645.46 533.66 645.31 533.31 645.31 532.92C645.31 532.46 645.45 532.09 645.73 531.81L649.99 527.55L641.44 519.01L636.66 523.8H621.15L616.74 519.39L608.39 527.74L612.63 531.98C612.93 532.28 613.08 532.65 613.08 533.06C613.08 533.47 612.92 533.84 612.63 534.14C612.34 534.43 611.95 534.59 611.51 534.6H611.47V534.57Z" fill="#5C8EF2"/>
<path d="M635.03 490.19L635.59 490.75L638.9 494.06L643.19 498.35L643.75 498.91V511.23L643.57 511.41L638.22 516.76L635.97 519.01L635.03 519.95H622.71L622.15 519.39L616.71 513.95L614.55 511.79L613.99 511.23V498.91L614.93 497.97L620.37 492.53L622.53 490.37L622.71 490.19H635.03V490.19ZM611.23 470.76C609.83 470.76 608.52 471.32 607.52 472.32L596.88 482.96C595.86 483.98 595.31 485.35 595.34 486.81C595.34 488.24 595.9 489.59 596.91 490.59C597.93 491.61 599.28 492.17 600.71 492.17C602.14 492.17 603.49 491.61 604.51 490.59L606.03 489.07L609.5 492.54L606.31 495.73V514.42L609.12 517.23L606.22 520.13L604.68 518.59C603.66 517.57 602.29 517.02 600.83 517.02C599.42 517.04 598.09 517.6 597.09 518.6C596.12 519.57 595.55 520.86 595.49 522.23C595.43 523.75 595.99 525.16 597.06 526.23L607.7 536.87C608.7 537.87 610.05 538.42 611.47 538.42C611.49 538.42 611.51 538.42 611.53 538.42C612.97 538.4 614.33 537.84 615.33 536.84C616.35 535.82 616.91 534.47 616.91 533.04C616.91 531.61 616.35 530.26 615.33 529.24L613.81 527.72L616.71 524.82L619.52 527.63H638.21L641.4 524.44L644.5 527.54L642.96 529.08C641.94 530.1 641.39 531.47 641.41 532.91C641.41 534.34 641.97 535.66 642.98 536.66C643.95 537.63 645.24 538.2 646.64 538.26C646.71 538.26 646.79 538.26 646.86 538.26C648.27 538.26 649.6 537.7 650.61 536.69L661.25 526.05C662.27 525.03 662.82 523.66 662.8 522.22C662.78 520.78 662.22 519.42 661.22 518.42C660.2 517.4 658.85 516.84 657.42 516.84C655.99 516.84 654.64 517.4 653.62 518.42L652.1 519.94L649 516.84L651.43 514.41V495.72L648.62 492.91L652.28 489.25L653.82 490.79C654.82 491.79 656.17 492.34 657.59 492.34C657.61 492.34 657.63 492.34 657.65 492.34C659.06 492.32 660.4 491.78 661.4 490.77C662.37 489.8 662.94 488.51 662.98 487.12C663.06 485.61 662.49 484.2 661.43 483.14L650.79 472.5C649.77 471.48 648.4 470.93 646.95 470.93C645.52 470.96 644.17 471.52 643.17 472.53C642.15 473.55 641.59 474.9 641.59 476.33C641.59 477.76 642.15 479.11 643.17 480.13L644.69 481.65L641.03 485.31L638.22 482.5H619.53L617.1 484.93L613.63 481.47L615.16 479.93C616.18 478.91 616.74 477.56 616.71 476.1C616.71 474.67 616.15 473.35 615.14 472.35C614.17 471.38 612.88 470.81 611.49 470.77C611.41 470.76 611.32 470.76 611.23 470.76Z" fill="#5C8EF2"/>
<path d="M498.86 399.92H341.03C338.53 399.92 336.13 398.93 334.36 397.16L222.75 285.56C220.05 282.86 219.24 278.8 220.7 275.27C222.16 271.74 225.6 269.44 229.42 269.44H345.64C350.85 269.44 355.08 273.67 355.08 278.88C355.08 284.09 350.85 288.32 345.64 288.32H252.21L344.94 381.05H494.95L601.03 274.97V124.95L494.95 18.88H341.03C335.82 18.88 331.59 14.65 331.59 9.44C331.59 4.23 335.82 0 341.03 0H498.86C501.36 0 503.76 0.99001 505.53 2.76001L617.13 114.37C618.9 116.14 619.89 118.54 619.89 121.04V278.87C619.89 281.37 618.9 283.77 617.13 285.54L505.53 397.14C503.77 398.92 501.37 399.92 498.86 399.92Z" fill="#0D0D0D"/>
<path d="M313.41 275.38C313.41 279.29 312.05 282.58 309.33 285.24C306.61 287.9 303.3 289.23 299.38 289.23C295.47 289.23 292.18 287.9 289.52 285.24C286.86 282.58 285.53 279.29 285.53 275.38V136.16C285.53 132.68 286.97 129.5 289.85 126.62C292.73 123.74 295.91 122.3 299.39 122.3C302.98 122.3 306.16 123.71 308.93 126.54C311.7 129.37 313.09 132.57 313.09 136.16C313.09 154.31 313.14 177.51 313.25 205.77C313.36 234.03 313.41 257.23 313.41 275.38Z" fill="#5C8EF2"/>
<path d="M554.23 275.87C554.23 278.26 553.74 280.38 552.76 282.23C551.78 284.08 550.61 285.41 549.25 286.22C547.89 287.03 546.5 287.72 545.09 288.26C543.68 288.8 542.48 289.13 541.5 289.24H540.03C539.7 289.24 539.22 289.21 538.56 289.16C537.91 289.11 536.79 288.81 535.22 288.26C533.64 287.72 532.26 287.04 531.06 286.22C529.86 285.41 528.78 284.07 527.8 282.23C526.82 280.38 526.33 278.26 526.33 275.87V219.63H457.05H428.52H359.24V275.87C359.24 278.26 358.78 280.38 357.85 282.23C356.93 284.08 355.78 285.41 354.43 286.22C353.07 287.03 351.71 287.72 350.36 288.26C349 288.8 347.89 289.13 347.02 289.24H345.55C345.11 289.24 344.6 289.21 344 289.16C343.4 289.11 342.29 288.81 340.66 288.26C339.03 287.72 337.59 287.04 336.34 286.22C335.09 285.41 333.95 284.07 332.92 282.23C331.88 280.38 331.37 278.26 331.37 275.87V177.89C331.37 162.57 336.8 149.47 347.67 138.6C358.53 127.73 371.63 122.3 386.96 122.3H400.65H484.93H498.63C513.95 122.3 527.05 127.74 537.92 138.6C548.79 149.47 554.22 162.56 554.22 177.89V275.87H554.23ZM457.07 191.91H526.35V178.22C526.35 170.5 523.63 163.93 518.2 158.49C512.76 153.06 506.24 150.34 498.64 150.34H442.88H386.96C379.35 150.34 372.83 153.06 367.4 158.49C361.96 163.93 359.25 170.5 359.25 178.22V191.91H428.53H457.07Z" fill="#5C8EF2"/>
<path d="M651.99 137.02C649.78 137.02 647.7 137.89 646.13 139.46L643.78 141.8L638.99 137.01L642.74 133.26V104.4L638.4 100.06L644.05 94.41L646.42 96.78C647.97 98.33 650.04 99.17 652.24 99.17C652.27 99.17 652.3 99.17 652.33 99.17C654.51 99.15 656.58 98.3 658.12 96.75C659.62 95.25 660.49 93.26 660.56 91.12C660.68 88.8 659.81 86.62 658.17 84.97L641.75 68.55C640.18 66.98 638.07 66.13 635.81 66.13C633.6 66.18 631.52 67.04 629.97 68.59C628.4 70.16 627.53 72.25 627.53 74.45C627.53 76.65 628.4 78.74 629.97 80.31L632.32 82.66L626.67 88.31L622.33 83.97H593.47L589.72 87.72L584.37 82.37L586.74 80C588.31 78.43 589.18 76.34 589.13 74.09C589.13 71.89 588.26 69.84 586.71 68.3C585.21 66.8 583.21 65.93 581.08 65.86C580.94 65.85 580.8 65.85 580.66 65.85C578.49 65.85 576.47 66.71 574.93 68.25L558.51 84.67C556.94 86.24 556.09 88.35 556.14 90.61C556.14 92.81 557.01 94.9 558.56 96.45C560.13 98.02 562.22 98.89 564.42 98.89C566.63 98.89 568.71 98.02 570.28 96.45L572.63 94.1L577.98 99.45L573.05 104.38V133.24L577.39 137.58L572.91 142.06L570.54 139.69C568.97 138.12 566.86 137.27 564.6 137.27C562.42 137.29 560.38 138.16 558.83 139.71C557.33 141.21 556.46 143.21 556.37 145.32C556.28 147.67 557.14 149.85 558.79 151.49L575.21 167.91C576.76 169.46 578.84 170.3 581.03 170.3C581.06 170.3 581.09 170.3 581.12 170.3C583.35 170.28 585.44 169.41 586.98 167.86C588.55 166.29 589.42 164.2 589.42 162C589.42 159.8 588.55 157.71 586.98 156.14L584.63 153.79L589.11 149.31L593.45 153.65H622.31L627.24 148.72L632.03 153.51L629.66 155.88C628.09 157.45 627.24 159.56 627.27 161.79C627.27 163.99 628.14 166.04 629.69 167.58C631.19 169.08 633.19 169.95 635.34 170.04C635.45 170.04 635.57 170.05 635.68 170.05C637.85 170.05 639.9 169.19 641.47 167.63L657.89 151.21C659.46 149.64 660.31 147.53 660.28 145.3C660.26 143.07 659.39 140.98 657.84 139.44C656.28 137.89 654.19 137.02 651.99 137.02Z" fill="#5C8EF2"/>
</svg>
