<svg width="500" height="454" viewBox="0 0 500 454" fill="none" xmlns="http://www.w3.org/2000/svg">
<path d="M316.469 453.826H137.36C134.518 453.826 131.793 452.698 129.787 450.691L3.13699 324.041C0.0712516 320.976 -0.841503 316.37 0.816782 312.371C2.47507 308.371 6.37692 305.758 10.7108 305.758H142.593C148.509 305.758 153.302 310.552 153.302 316.467C153.302 322.383 148.509 327.177 142.593 327.177H36.5674L141.799 432.401H312.038L432.41 312.029V141.797L312.038 21.4183H137.36C131.445 21.4183 126.651 16.6246 126.651 10.7092C126.651 4.79369 131.445 0 137.36 0H316.469C319.312 0 322.036 1.12875 324.043 3.13541L450.693 129.785C452.699 131.792 453.828 134.516 453.828 137.359V316.467C453.828 319.31 452.699 322.035 450.693 324.041L324.043 450.691C322.036 452.698 319.312 453.826 316.469 453.826Z" fill="white"/>
<path d="M106.02 312.503C106.02 316.941 104.473 320.676 101.394 323.693C98.3072 326.717 94.5516 328.222 90.1063 328.222C85.668 328.222 81.9333 326.71 78.9164 323.693C75.8924 320.669 74.3875 316.941 74.3875 312.503V154.513C74.3875 150.569 76.0248 146.96 79.2926 143.692C82.5604 140.424 86.1696 138.787 90.1133 138.787C94.1824 138.787 97.7916 140.39 100.934 143.595C104.083 146.8 105.651 150.437 105.651 154.513C105.651 175.109 105.714 201.44 105.839 233.504C105.958 265.576 106.02 291.907 106.02 312.503Z" fill="#5C8EF2"/>
<path d="M379.303 313.06C379.303 315.771 378.745 318.181 377.637 320.272C376.523 322.369 375.199 323.881 373.659 324.801C372.119 325.727 370.544 326.501 368.942 327.114C367.339 327.734 365.981 328.103 364.873 328.222H363.208C362.838 328.222 362.281 328.194 361.542 328.131C360.804 328.068 359.536 327.734 357.752 327.114C355.961 326.501 354.394 325.727 353.035 324.801C351.676 323.874 350.443 322.369 349.335 320.272C348.227 318.174 347.67 315.771 347.67 313.06V249.237H269.041H236.662H158.04V313.06C158.04 315.771 157.511 318.181 156.466 320.272C155.413 322.369 154.117 323.881 152.578 324.801C151.038 325.727 149.498 326.501 147.951 327.114C146.404 327.734 145.143 328.103 144.161 328.222H142.496C142.001 328.222 141.416 328.194 140.74 328.131C140.057 328.068 138.796 327.734 136.949 327.114C135.096 326.501 133.459 325.727 132.044 324.801C130.623 323.874 129.334 322.369 128.163 320.272C126.986 318.174 126.407 315.771 126.407 313.06V201.872C126.407 184.481 132.574 169.619 144.906 157.286C157.239 144.953 172.101 138.787 189.492 138.787H205.03H300.674H316.218C333.609 138.787 348.464 144.953 360.804 157.286C373.136 169.619 379.303 184.481 379.303 201.872V313.06ZM269.041 217.786H347.663V202.248C347.663 193.49 344.583 186.034 338.417 179.861C332.251 173.695 324.851 170.608 316.218 170.608H252.946H189.492C180.859 170.608 173.459 173.695 167.293 179.861C161.127 186.027 158.047 193.49 158.047 202.248V217.786H236.669H269.041Z" fill="#5C8EF2"/>
<path d="M490.241 155.488C487.739 155.488 485.37 156.471 483.586 158.255L480.925 160.916L475.497 155.488L479.754 151.231V118.484L474.828 113.558L481.245 107.14L483.935 109.83C485.691 111.586 488.046 112.547 490.54 112.547C490.575 112.547 490.61 112.547 490.645 112.547C493.118 112.519 495.466 111.565 497.222 109.809C498.929 108.102 499.912 105.844 499.988 103.42C500.121 100.786 499.138 98.3055 497.271 96.4452L478.633 77.8069C476.849 76.0232 474.452 75.0687 471.895 75.0687C469.394 75.1244 467.025 76.1068 465.269 77.8627C463.485 79.6464 462.503 82.0154 462.503 84.5167C462.503 87.0181 463.485 89.387 465.269 91.1707L467.93 93.8324L461.513 100.249L456.587 95.3234H423.839L419.582 99.5806L413.514 93.5119L416.203 90.8224C417.987 89.0387 418.969 86.6697 418.92 84.1126C418.92 81.6112 417.938 79.291 416.175 77.5352C414.468 75.8281 412.211 74.8457 409.786 74.7691C409.626 74.7621 409.472 74.7551 409.312 74.7551C406.853 74.7551 404.56 75.7306 402.811 77.4795L384.173 96.1177C382.389 97.9014 381.428 100.298 381.484 102.855C381.484 105.357 382.466 107.726 384.229 109.482C386.012 111.265 388.381 112.248 390.883 112.248C393.384 112.248 395.753 111.258 397.537 109.482L400.198 106.82L406.267 112.889L400.679 118.477V151.224L405.605 156.15L400.519 161.237L397.829 158.547C396.046 156.764 393.649 155.802 391.092 155.802C388.618 155.83 386.298 156.812 384.542 158.568C382.835 160.275 381.853 162.533 381.748 164.93C381.644 167.591 382.626 170.065 384.494 171.932L403.132 190.57C404.895 192.333 407.25 193.288 409.737 193.288C409.772 193.288 409.807 193.288 409.842 193.288C412.371 193.26 414.74 192.277 416.496 190.521C418.279 188.738 419.262 186.369 419.262 183.867C419.262 181.366 418.279 178.997 416.496 177.213L413.834 174.552L418.92 169.465L423.846 174.392H456.594L462.182 168.804L467.61 174.231L464.92 176.921C463.137 178.704 462.175 181.101 462.203 183.631C462.203 186.132 463.185 188.452 464.948 190.208C466.648 191.915 468.913 192.897 471.365 193.002C471.491 193.009 471.623 193.009 471.749 193.009C474.215 193.009 476.542 192.033 478.312 190.257L496.95 171.618C498.734 169.835 499.696 167.438 499.668 164.909C499.64 162.379 498.657 160.01 496.902 158.255C495.111 156.478 492.742 155.488 490.241 155.488Z" fill="#5C8EF2"/>
</svg>
