<svg width="500" height="65" viewBox="0 0 500 65" fill="none" xmlns="http://www.w3.org/2000/svg">
<path d="M333.286 0H437.411C438.925 0 440.193 0.51627 441.22 1.54307C442.247 2.56987 442.763 3.84332 442.763 5.35197C442.763 6.94667 442.27 8.24881 441.283 9.2584C440.296 10.268 439.006 10.7671 437.411 10.7671H333.286C330.429 10.7671 327.934 11.4841 325.788 12.9067C323.649 14.335 322.576 16.3083 322.576 18.8266C322.576 21.1785 323.689 23.1116 325.914 24.6203C328.14 26.1289 330.595 26.8861 333.286 26.8861H381.654C387.362 26.8861 392.381 28.693 396.706 32.3012C401.031 35.915 403.194 40.4066 403.194 45.7815C403.194 51.1564 401.043 55.6193 396.741 59.1643C392.438 62.7151 387.408 64.4876 381.654 64.4876H296.848C295.34 64.4876 294.066 63.9714 293.04 62.9446C292.013 61.9178 291.496 60.6443 291.496 59.1357C291.496 57.6672 292.03 56.3937 293.103 55.3267C294.175 54.254 295.42 53.7206 296.848 53.7206H381.654C384.551 53.7206 387.069 53.0093 389.209 51.5809C391.349 50.1526 392.421 48.1793 392.421 45.6611C392.421 43.2289 391.331 41.2728 389.146 39.8043C386.96 38.3358 384.465 37.6015 381.648 37.6015H333.286C327.578 37.6015 322.57 35.7946 318.262 32.1865C313.96 28.5783 311.809 24.0811 311.809 18.7061C311.809 13.3714 313.971 8.9257 318.297 5.35197C322.622 1.78399 327.618 0 333.286 0Z" fill="white"/>
<path d="M86.0848 59.3249C86.0848 60.2484 85.8955 61.0687 85.517 61.78C85.1384 62.4913 84.6852 63.0075 84.1632 63.323C83.6354 63.6385 83.102 63.9024 82.557 64.1089C82.0121 64.3212 81.5474 64.4474 81.1746 64.4875H80.6067C80.4805 64.4875 80.2912 64.476 80.0388 64.4588C79.7864 64.4359 79.3562 64.3212 78.7481 64.1147C78.1401 63.9024 77.6008 63.6443 77.1419 63.3288C76.6773 63.0133 76.2585 62.5028 75.8799 61.7857C75.5013 61.0744 75.312 60.2541 75.312 59.3306V37.6014H48.5464H37.527H10.7613V59.3306C10.7613 60.2541 10.5835 61.0744 10.2278 61.7857C9.87219 62.497 9.4305 63.0133 8.90276 63.3288C8.37501 63.6443 7.85301 63.9082 7.33101 64.1147C6.80327 64.3269 6.37304 64.4531 6.04034 64.4932H5.47244C5.30609 64.4932 5.10532 64.4818 4.87587 64.4646C4.64641 64.4416 4.21619 64.3269 3.5852 64.1204C2.9542 63.9082 2.39778 63.65 1.91593 63.3345C1.43408 63.019 0.992383 62.5085 0.596577 61.7915C0.195035 61.0802 0 60.2598 0 59.3363V21.4824C0 15.5625 2.09949 10.5031 6.29847 6.30409C10.4975 2.10511 15.5569 0.00561523 21.4768 0.00561523H26.7656H59.3249H64.6138C70.5337 0.00561523 75.5931 2.10511 79.7921 6.30409C83.9911 10.5031 86.0906 15.5625 86.0906 21.4824V59.3249H86.0848ZM48.5522 26.8917H75.3178V21.6028C75.3178 18.62 74.268 16.0845 72.1686 13.985C70.0691 11.8855 67.5508 10.8358 64.6138 10.8358H43.074H21.471C18.534 10.8358 16.01 11.8855 13.9163 13.985C11.8168 16.0845 10.7671 18.6257 10.7671 21.6028V26.8917H37.5327H48.5522Z" fill="white"/>
<path d="M279.49 59.3249C279.49 60.2484 279.301 61.0687 278.922 61.78C278.544 62.4913 278.091 63.0075 277.569 63.323C277.041 63.6385 276.507 63.9024 275.963 64.1089C275.418 64.3212 274.953 64.4474 274.58 64.4875H274.012C273.886 64.4875 273.697 64.476 273.444 64.4588C273.192 64.4359 272.762 64.3212 272.154 64.1147C271.546 63.9024 271.006 63.6443 270.547 63.3288C270.083 63.0133 269.664 62.5028 269.285 61.7857C268.907 61.0744 268.718 60.2541 268.718 59.3306V37.6014H241.952H230.932H204.167V59.3306C204.167 60.2541 203.989 61.0744 203.633 61.7857C203.278 62.497 202.836 63.0133 202.308 63.3288C201.781 63.6443 201.259 63.9082 200.737 64.1147C200.209 64.3269 199.779 64.4531 199.446 64.4932H198.878C198.712 64.4932 198.511 64.4818 198.281 64.4646C198.052 64.4416 197.622 64.3269 196.991 64.1204C196.36 63.9082 195.803 63.65 195.321 63.3345C194.84 63.019 194.398 62.5085 194.002 61.7915C193.601 61.0802 193.406 60.2598 193.406 59.3363V21.4824C193.406 15.5625 195.505 10.5031 199.704 6.30409C203.903 2.10511 208.962 0.00561523 214.882 0.00561523H220.165H252.725H258.014C263.933 0.00561523 268.993 2.10511 273.192 6.30409C277.391 10.5031 279.49 15.5625 279.49 21.4824V59.3249V59.3249ZM241.958 26.8917H268.723V21.6028C268.723 18.62 267.674 16.0845 265.574 13.985C263.475 11.8855 260.956 10.8358 258.019 10.8358H236.479H214.877C211.94 10.8358 209.416 11.8855 207.322 13.985C205.222 16.0845 204.173 18.6257 204.173 21.6028V26.8917H230.938H241.958Z" fill="white"/>
<path d="M177.281 53.7205C178.795 53.7205 180 54.1736 180.9 55.0742C181.801 55.9748 182.34 56.8927 182.507 57.8162L182.759 59.1413C182.759 59.2675 182.736 59.4568 182.696 59.7092C182.656 59.9616 182.518 60.3918 182.289 60.9998C182.059 61.6079 181.761 62.1528 181.405 62.6347C181.05 63.1165 180.499 63.5468 179.765 63.9254C179.03 64.3039 178.199 64.4932 177.275 64.4932H107.625C104.934 64.4932 102.462 63.3689 100.19 61.126C97.9246 58.8774 96.7888 56.4108 96.7888 53.7262V5.35761C96.7888 3.76291 97.2477 2.52386 98.177 1.64047C99.1005 0.757076 100.024 0.252277 100.948 0.131815L102.267 0.00561523C102.393 0.00561523 102.582 0.0170984 102.835 0.0343073C103.087 0.0572526 103.518 0.160499 104.126 0.349798C104.734 0.539096 105.267 0.814435 105.732 1.17009C106.191 1.52574 106.615 2.08216 106.994 2.83936C107.372 3.59655 107.562 4.47995 107.562 5.48381V48.3742C107.562 49.7624 108.13 51.0014 109.26 52.0913C110.395 53.1812 111.611 53.7319 112.914 53.7319H177.281V53.7205Z" fill="white"/>
<path d="M301.105 59.1357C301.105 60.65 300.577 61.9178 299.527 62.9446C298.478 63.9714 297.198 64.4876 295.684 64.4876C294.175 64.4876 292.902 63.9714 291.875 62.9446C290.848 61.9178 290.332 60.6443 290.332 59.1357V5.35197C290.332 4.00968 290.888 2.78211 292.001 1.66927C293.114 0.556424 294.342 0 295.684 0C297.072 0 298.3 0.544953 299.367 1.63485C300.439 2.72475 300.973 3.96378 300.973 5.35197C300.973 12.3675 300.996 21.3276 301.036 32.2438C301.082 43.16 301.105 52.1259 301.105 59.1357Z" fill="#5C8EF2"/>
<path d="M499.994 59.3249C499.994 60.2484 499.805 61.0687 499.426 61.78C499.048 62.4913 498.595 63.0075 498.073 63.323C497.545 63.6385 497.011 63.9024 496.466 64.1089C495.921 64.3212 495.457 64.4474 495.084 64.4875H494.516C494.39 64.4875 494.201 64.476 493.948 64.4588C493.696 64.4359 493.266 64.3212 492.658 64.1147C492.05 63.9024 491.51 63.6443 491.051 63.3288C490.587 63.0133 490.168 62.5028 489.789 61.7857C489.411 61.0744 489.221 60.2541 489.221 59.3306V37.6014H462.456H451.436H424.671V59.3306C424.671 60.2541 424.493 61.0744 424.137 61.7857C423.782 62.497 423.34 63.0133 422.812 63.3288C422.284 63.6443 421.762 63.9082 421.24 64.1147C420.713 64.3269 420.282 64.4531 419.95 64.4932H419.382C419.216 64.4932 419.015 64.4818 418.785 64.4646C418.556 64.4416 418.126 64.3269 417.495 64.1204C416.864 63.9082 416.307 63.65 415.825 63.3345C415.344 63.019 414.902 62.5085 414.506 61.7915C414.104 61.0802 413.909 60.2598 413.909 59.3363V21.4824C413.909 15.5625 416.009 10.5031 420.208 6.30409C424.407 2.10511 429.466 0.00561523 435.386 0.00561523H440.675H473.234H478.523C484.443 0.00561523 489.503 2.10511 493.702 6.30409C497.901 10.5031 500 15.5625 500 21.4824V59.3249H499.994ZM462.462 26.8917H489.227V21.6028C489.227 18.62 488.177 16.0845 486.078 13.985C483.978 11.8855 481.46 10.8358 478.523 10.8358H456.983H435.38C432.443 10.8358 429.919 11.8855 427.826 13.985C425.726 16.0845 424.676 18.6257 424.676 21.6028V26.8917H451.442H462.462Z" fill="#5C8EF2"/>
<path d="M350.758 48.8963C350.523 48.8963 350.317 48.8102 350.156 48.6553L344.053 42.5519C343.875 42.3741 343.789 42.1561 343.8 41.9094C343.812 41.68 343.903 41.462 344.07 41.2957C344.236 41.1293 344.448 41.0375 344.678 41.0375C344.833 41.0375 345.091 41.0834 345.297 41.2899L347.741 43.7336L352.531 38.9438L350.001 36.4141V27.5228L352.749 24.7751L347.638 19.664L345.206 22.0962C345.033 22.2683 344.821 22.3544 344.586 22.3544C344.351 22.3544 344.139 22.2626 343.967 22.0962C343.806 21.9356 343.714 21.7176 343.714 21.4882C343.708 21.2071 343.789 21.0006 343.949 20.8457L350.053 14.7423C350.219 14.5816 350.408 14.4956 350.621 14.4956C350.936 14.5071 351.143 14.5989 351.309 14.7595C351.475 14.9258 351.561 15.1266 351.561 15.3503C351.567 15.6199 351.487 15.8207 351.321 15.9871L348.883 18.4307L353.994 23.5418L356.305 21.23H365.202L367.732 23.7598L372.958 18.534L370.526 16.1018C370.354 15.9297 370.268 15.7174 370.268 15.4823C370.268 15.2471 370.359 15.0348 370.526 14.8627C370.692 14.6964 370.927 14.5989 371.18 14.5931C371.312 14.5931 371.57 14.639 371.776 14.8455L377.88 20.949C378.058 21.121 378.138 21.3276 378.126 21.5627C378.115 21.8324 378.029 22.0389 377.862 22.2052C377.656 22.4117 377.415 22.4576 377.243 22.4576C376.996 22.4576 376.79 22.3716 376.635 22.2167L374.191 19.773L368.971 24.9988L371.501 27.5285V36.4198L369.195 38.7315L374.094 43.6303L376.526 41.1981C376.698 41.026 376.91 40.94 377.145 40.94C377.381 40.94 377.593 41.0318 377.765 41.1981C377.931 41.3645 378.023 41.5882 378.023 41.8406C378.023 42.0815 377.943 42.2938 377.782 42.4544L371.679 48.5578C371.512 48.7242 371.312 48.8102 371.088 48.8102C370.807 48.7988 370.589 48.707 370.422 48.5406C370.256 48.3743 370.17 48.1735 370.17 47.9498C370.17 47.6859 370.25 47.4737 370.411 47.3131L372.855 44.8694L367.95 39.9706L365.208 42.7183H356.311L353.781 40.1885L348.992 44.9784L351.424 47.4106C351.596 47.5827 351.682 47.7949 351.682 48.0301C351.682 48.2653 351.59 48.4775 351.424 48.6496C351.257 48.816 351.034 48.9077 350.781 48.9135H350.758V48.8963Z" fill="#5C8EF2"/>
<path d="M364.273 23.4328L364.594 23.754L366.493 25.6527L368.954 28.1136L369.275 28.4348V35.502L369.172 35.6052L366.103 38.6742L364.812 39.9648L364.273 40.5041H357.206L356.885 40.1828L353.764 37.0623L352.525 35.8232L352.204 35.502V28.4348L352.743 27.8956L355.864 24.7751L357.103 23.536L357.206 23.4328H364.273V23.4328ZM350.621 12.2871C349.818 12.2871 349.066 12.6083 348.492 13.182L342.389 19.2854C341.804 19.8705 341.488 20.6564 341.506 21.4939C341.506 22.3142 341.827 23.0886 342.406 23.6622C342.991 24.2473 343.766 24.5686 344.586 24.5686C345.406 24.5686 346.181 24.2473 346.766 23.6622L347.638 22.7903L349.628 24.7808L347.798 26.6107V37.3319L349.41 38.9438L347.747 40.6073L346.863 39.7239C346.278 39.1388 345.492 38.8233 344.655 38.8233C343.846 38.8348 343.083 39.156 342.51 39.7296C341.953 40.2861 341.626 41.026 341.592 41.8119C341.557 42.6838 341.879 43.4927 342.492 44.1064L348.596 50.2099C349.169 50.7835 349.944 51.099 350.758 51.099C350.77 51.099 350.781 51.099 350.793 51.099C351.619 51.0875 352.399 50.7663 352.973 50.1927C353.558 49.6076 353.879 48.8332 353.879 48.0129C353.879 47.1926 353.558 46.4182 352.973 45.8331L352.101 44.9611L353.764 43.2976L355.376 44.9095H366.097L367.927 43.0797L369.705 44.8579L368.822 45.7413C368.237 46.3264 367.921 47.1123 367.933 47.9383C367.933 48.7586 368.254 49.5158 368.833 50.0894C369.39 50.6458 370.13 50.9728 370.933 51.0072C370.973 51.0072 371.019 51.0072 371.059 51.0072C371.868 51.0072 372.631 50.686 373.21 50.1066L379.314 44.0032C379.899 43.4181 380.214 42.6322 380.203 41.8062C380.191 40.9801 379.87 40.2 379.296 39.6264C378.711 39.0413 377.937 38.72 377.117 38.72C376.296 38.72 375.522 39.0413 374.937 39.6264L374.065 40.4983L372.287 38.72L373.681 37.3261V26.6049L372.069 24.993L374.168 22.8936L375.052 23.7769C375.625 24.3506 376.4 24.6661 377.214 24.6661C377.226 24.6661 377.237 24.6661 377.249 24.6661C378.057 24.6546 378.826 24.3448 379.4 23.7655C379.956 23.209 380.283 22.4691 380.306 21.6717C380.352 20.8055 380.025 19.9967 379.417 19.3887L373.313 13.2852C372.728 12.7001 371.943 12.3846 371.111 12.3846C370.29 12.4018 369.516 12.7231 368.942 13.3024C368.357 13.8876 368.036 14.6619 368.036 15.4822C368.036 16.3025 368.357 17.0769 368.942 17.662L369.814 18.5339L367.715 20.6335L366.103 19.0216H355.382L353.988 20.4155L351.997 18.4307L352.875 17.5473C353.46 16.9622 353.781 16.1878 353.764 15.3503C353.764 14.53 353.443 13.7728 352.864 13.1992C352.307 12.6428 351.567 12.3158 350.77 12.2929C350.724 12.2871 350.672 12.2871 350.621 12.2871Z" fill="#5C8EF2"/>
</svg>
