<svg width="550" height="551" viewBox="0 0 550 551" fill="none" xmlns="http://www.w3.org/2000/svg">
<path d="M504.808 374.819C493.169 374.819 482.215 379.401 473.946 387.669L461.57 399.993L436.343 374.767L456.093 355.017V203.025L433.236 180.168L462.992 150.412L475.473 162.894C483.637 171.057 494.538 175.481 506.125 175.481C506.283 175.481 506.441 175.481 506.599 175.481C518.08 175.376 528.981 170.899 537.092 162.736C544.992 154.836 549.574 144.356 549.942 133.085C550.574 120.867 545.992 109.386 537.355 100.696L450.879 14.2197C442.61 5.95125 431.498 1.47462 419.596 1.47462C407.957 1.73795 397.002 6.26712 388.839 14.4303C380.57 22.6987 375.989 33.7058 375.989 45.2922C375.989 56.8786 380.57 67.8856 388.839 76.154L401.215 88.5304L371.459 118.286L348.603 95.4296H196.61L176.861 115.179L148.685 87.0031L161.167 74.5214C169.435 66.253 174.017 55.2459 173.754 43.3962C173.754 31.8098 169.172 21.0135 161.009 12.9031C153.109 5.00327 142.576 0.421374 131.358 0.0527168C130.621 5.14322e-05 129.883 0 129.146 0C117.718 0 107.079 4.52919 98.969 12.6396L12.4926 99.1162C4.22419 107.385 -0.252334 118.497 0.0109924 130.399C0.0109924 141.986 4.59279 152.993 12.7559 161.156C21.0244 169.424 32.0313 174.006 43.6177 174.006C55.2568 174.006 66.2111 169.424 74.4795 161.156L86.8561 148.78L115.032 176.956L89.0679 202.92V354.912L111.925 377.768L88.3305 401.362L75.8489 388.881C67.5804 380.612 56.468 376.136 44.5657 376.136C33.0846 376.241 22.3411 380.823 14.178 388.986C6.27818 396.886 1.69618 407.419 1.22219 418.531C0.748204 430.908 5.27733 442.389 13.9671 451.026L100.444 537.502C108.607 545.666 119.561 550.089 131.095 550.089C131.253 550.089 131.411 550.089 131.569 550.089C143.313 549.984 154.32 545.402 162.431 537.239C170.699 528.971 175.281 517.964 175.281 506.377C175.281 494.791 170.699 483.784 162.431 475.515L150.054 463.139L173.648 439.545L196.505 462.402H348.497L374.461 436.438L399.688 461.664L387.206 474.146C378.938 482.414 374.462 493.527 374.62 505.271C374.62 516.858 379.201 527.654 387.364 535.765C395.264 543.664 405.797 548.246 417.12 548.72C417.7 548.72 418.332 548.773 418.911 548.773C430.339 548.773 441.136 544.244 449.404 536.028L535.881 449.551C544.149 441.283 548.625 430.171 548.468 418.426C548.362 406.682 543.781 395.675 535.617 387.564C527.402 379.401 516.394 374.819 504.808 374.819Z" fill="#5C8EF2"/>
</svg>
