<svg width="166" height="166" viewBox="0 0 166 166" fill="none" xmlns="http://www.w3.org/2000/svg">
<g filter="url(#filter0_d)">
<path d="M145.675 106.207C142.501 106.207 139.513 107.456 137.258 109.711L133.883 113.071L127.003 106.192L132.389 100.807V59.3614L126.155 53.1288L134.27 45.0148L137.675 48.4184C139.901 50.6443 142.874 51.8507 146.034 51.8507C146.077 51.8507 146.12 51.8507 146.163 51.8507C149.295 51.8219 152.268 50.6012 154.48 48.3753C156.634 46.2211 157.884 43.3633 157.984 40.2901C158.157 36.9583 156.907 33.8277 154.551 31.4581L130.967 7.87747C128.712 5.6228 125.681 4.4021 122.435 4.4021C119.261 4.47391 116.273 5.70894 114.047 7.93488C111.792 10.1895 110.542 13.191 110.542 16.3504C110.542 19.5098 111.792 22.5112 114.047 24.7659L117.422 28.1407L109.307 36.2547L103.074 30.022H61.621L56.2348 35.4074L48.5505 27.7243L51.9546 24.3207C54.2096 22.066 55.4592 19.0646 55.3874 15.8334C55.3874 12.674 54.1378 9.73003 51.9115 7.51845C49.757 5.36431 46.8844 4.1149 43.825 4.01437C43.6239 4.00001 43.4228 4 43.2217 4C40.1049 4 37.2035 5.23503 34.9916 7.44662L11.4071 31.0273C9.15205 33.282 7.93118 36.3121 8.003 39.5577C8.003 42.7171 9.25258 45.7185 11.4789 47.9445C13.7339 50.1991 16.7358 51.4485 19.8957 51.4485C23.07 51.4485 26.0576 50.1991 28.3126 47.9445L31.688 44.5696L39.3723 52.2528L32.2913 59.3327V100.778L38.525 107.011L32.0901 113.445L28.6861 110.041C26.431 107.786 23.4004 106.566 20.1543 106.566C17.0231 106.595 14.093 107.844 11.8667 110.07C9.71223 112.224 8.46259 115.096 8.33333 118.126C8.20406 121.501 9.43927 124.632 11.8092 126.987L35.3938 150.568C37.6201 152.794 40.6076 154 43.7531 154C43.7962 154 43.8393 154 43.8824 154C47.0854 153.971 50.0873 152.722 52.2993 150.496C54.5543 148.241 55.8039 145.24 55.8039 142.08C55.8039 138.921 54.5543 135.92 52.2993 133.665L48.9239 130.29L55.3587 123.856L61.5924 130.089H103.045L110.126 123.009L117.006 129.888L113.602 133.292C111.347 135.546 110.126 138.576 110.169 141.779C110.169 144.938 111.419 147.882 113.645 150.094C115.799 152.248 118.672 153.497 121.76 153.627C121.918 153.627 122.09 153.641 122.248 153.641C125.365 153.641 128.31 152.406 130.565 150.166L154.149 126.585C156.404 124.33 157.625 121.3 157.582 118.098C157.553 114.895 156.304 111.894 154.077 109.682C151.837 107.456 148.835 106.207 145.675 106.207Z" fill="#5C8EF2"/>
</g>
<defs>
<filter id="filter0_d" x="0" y="0" width="166" height="166" filterUnits="userSpaceOnUse" color-interpolation-filters="sRGB">
<feFlood flood-opacity="0" result="BackgroundImageFix"/>
<feColorMatrix in="SourceAlpha" type="matrix" values="0 0 0 0 0 0 0 0 0 0 0 0 0 0 0 0 0 0 127 0" result="hardAlpha"/>
<feOffset dy="4"/>
<feGaussianBlur stdDeviation="4"/>
<feColorMatrix type="matrix" values="0 0 0 0 0.0509804 0 0 0 0 0.0509804 0 0 0 0 0.0509804 0 0 0 0.4 0"/>
<feBlend mode="normal" in2="BackgroundImageFix" result="effect1_dropShadow"/>
<feBlend mode="normal" in="SourceGraphic" in2="effect1_dropShadow" result="shape"/>
</filter>
</defs>
</svg>
