<svg width="114" height="114" viewBox="0 0 114 114" fill="none" xmlns="http://www.w3.org/2000/svg">
<g filter="url(#filter0_d)">
<path d="M97.9476 70.7751C95.8738 70.7751 93.9219 71.5914 92.4486 73.0644L90.2433 75.2599L85.7484 70.7657L89.2674 67.2473V40.1694L85.1948 36.0975L90.4967 30.7964L92.7207 33.02C94.1752 34.4743 96.1177 35.2624 98.1822 35.2624C98.2104 35.2624 98.2385 35.2624 98.2667 35.2624C100.312 35.2437 102.255 34.4461 103.7 32.9919C105.108 31.5845 105.924 29.7174 105.99 27.7095C106.102 25.5328 105.286 23.4874 103.747 21.9393L88.3384 6.53328C86.8651 5.06023 84.8851 4.26271 82.7643 4.26271C80.6904 4.30962 78.7385 5.11651 77.284 6.57079C75.8107 8.04384 74.9943 10.0048 74.9943 12.0689C74.9943 14.1331 75.8107 16.094 77.284 17.5671L79.4893 19.7719L74.1873 25.073L70.1147 21.001H43.0324L39.5134 24.5195L34.493 19.4998L36.717 17.2762C38.1903 15.8032 39.0067 13.8422 38.9598 11.7312C38.9598 9.66701 38.1434 7.74362 36.6889 6.29872C35.2813 4.89135 33.4045 4.07507 31.4057 4.00939C31.2743 4.00001 31.1429 4 31.0115 4C28.9752 4 27.0796 4.80689 25.6345 6.25179L10.226 21.6578C8.75267 23.1309 7.95504 25.1106 8.00196 27.231C8.00196 29.2952 8.81835 31.2561 10.2729 32.7104C11.7462 34.1834 13.7074 34.9997 15.7719 34.9997C17.8457 34.9997 19.7976 34.1834 21.2709 32.7104L23.4762 30.5055L28.4966 35.5251L23.8703 40.1507V67.2285L27.943 71.3005L23.7389 75.5039L21.5149 73.2802C20.0416 71.8072 18.0616 71.0097 15.9408 71.0097C13.8951 71.0284 11.9808 71.8447 10.5263 73.299C9.11866 74.7063 8.30223 76.5829 8.21777 78.5626C8.13332 80.7674 8.94032 82.8128 10.4887 84.3515L25.8973 99.7576C27.3518 101.212 29.3036 102 31.3587 102C31.3869 102 31.415 102 31.4432 102C33.5358 101.981 35.4971 101.165 36.9422 99.7107C38.4155 98.2376 39.2319 96.2767 39.2319 94.2125C39.2319 92.1484 38.4155 90.1875 36.9422 88.7144L34.737 86.5095L38.941 82.3062L43.0137 86.3782H70.0959L74.7222 81.7526L79.2171 86.2468L76.9931 88.4705C75.5198 89.9435 74.7222 91.9232 74.7504 94.0155C74.7504 96.0797 75.5668 98.0031 77.0213 99.448C78.4289 100.855 80.3057 101.672 82.3233 101.756C82.4265 101.756 82.5391 101.765 82.6423 101.765C84.6786 101.765 86.6023 100.959 88.0756 99.4949L103.484 84.0888C104.957 82.6158 105.755 80.6361 105.727 78.5438C105.708 76.4515 104.892 74.4906 103.437 73.0457C101.973 71.5914 100.012 70.7751 97.9476 70.7751Z" fill="white"/>
</g>
<defs>
<filter id="filter0_d" x="0" y="0" width="114" height="114" filterUnits="userSpaceOnUse" color-interpolation-filters="sRGB">
<feFlood flood-opacity="0" result="BackgroundImageFix"/>
<feColorMatrix in="SourceAlpha" type="matrix" values="0 0 0 0 0 0 0 0 0 0 0 0 0 0 0 0 0 0 127 0" result="hardAlpha"/>
<feOffset dy="4"/>
<feGaussianBlur stdDeviation="4"/>
<feColorMatrix type="matrix" values="0 0 0 0 0.0509804 0 0 0 0 0.0509804 0 0 0 0 0.0509804 0 0 0 0.4 0"/>
<feBlend mode="normal" in2="BackgroundImageFix" result="effect1_dropShadow"/>
<feBlend mode="normal" in="SourceGraphic" in2="effect1_dropShadow" result="shape"/>
</filter>
</defs>
</svg>
