<svg width="20" height="21" viewBox="0 0 20 21" fill="none" xmlns="http://www.w3.org/2000/svg">
<path d="M18.3567 13.6298C17.9334 13.6298 17.5351 13.7964 17.2344 14.0971L16.7844 14.5452L15.867 13.6279L16.5852 12.9097V7.38272L15.754 6.55157L16.8361 5.46953L17.2899 5.92341C17.5868 6.22025 17.9832 6.38112 18.4045 6.38112C18.4103 6.38112 18.416 6.38112 18.4218 6.38112C18.8393 6.37729 19.2357 6.21451 19.5306 5.91767C19.8179 5.6304 19.9845 5.2493 19.9979 4.83946C20.0209 4.39516 19.8543 3.97767 19.5402 3.66168L16.3956 0.51708C16.0949 0.216409 15.6908 0.0536227 15.258 0.0536227C14.8348 0.0631982 14.4364 0.227895 14.1396 0.524736C13.8389 0.825408 13.6723 1.22567 13.6723 1.64699C13.6723 2.06831 13.8389 2.46857 14.1396 2.76924L14.5897 3.21929L13.5076 4.30132L12.6765 3.47017H7.14947L6.43131 4.18833L5.40673 3.16375L5.86061 2.70987C6.16128 2.4092 6.3279 2.00894 6.31832 1.57804C6.31832 1.15672 6.15171 0.764128 5.85487 0.469203C5.56761 0.181937 5.18458 0.0153227 4.77667 0.00191697C4.74986 1.87026e-06 4.72304 0 4.69622 0C4.28065 0 3.8938 0.164698 3.59887 0.459624L0.454278 3.60423C0.153607 3.9049 -0.00917579 4.30898 0.000399724 4.7418C0.000399724 5.16312 0.16701 5.56338 0.463851 5.86022C0.764522 6.16089 1.16478 6.3275 1.5861 6.3275C2.00934 6.3275 2.40768 6.16089 2.70835 5.86022L3.1584 5.41017L4.18298 6.43475L3.23883 7.37889V12.9059L4.06999 13.737L3.21202 14.595L2.75814 14.1411C2.45747 13.8404 2.05338 13.6777 1.62057 13.6777C1.20308 13.6815 0.812404 13.8481 0.515563 14.1449C0.228297 14.4322 0.0616793 14.8152 0.0444434 15.2193C0.0272074 15.6694 0.191903 16.0869 0.507895 16.4009L3.6525 19.5455C3.94934 19.8424 4.34767 20.0033 4.76708 20.0033C4.77283 20.0033 4.77858 20.0033 4.78432 20.0033C5.21139 19.9994 5.61164 19.8328 5.90657 19.536C6.20724 19.2353 6.37386 18.835 6.37386 18.4137C6.37386 17.9924 6.20724 17.5921 5.90657 17.2915L5.45653 16.8414L6.31449 15.9834L7.14565 16.8146H12.6726L13.6168 15.8705L14.5341 16.7878L14.0802 17.2417C13.7796 17.5423 13.6168 17.9464 13.6225 18.3735C13.6225 18.7948 13.7891 19.1874 14.086 19.4823C14.3732 19.7696 14.7563 19.9362 15.168 19.9535C15.1891 19.9535 15.2121 19.9554 15.2331 19.9554C15.6487 19.9554 16.0413 19.7907 16.342 19.4919L19.4866 16.3473C19.7872 16.0466 19.95 15.6426 19.9443 15.2155C19.9404 14.7884 19.7738 14.3882 19.477 14.0932C19.1782 13.7964 18.778 13.6298 18.3567 13.6298Z" fill="#5C8EF2"/>
</svg>
