<svg width="872" height="113" viewBox="0 0 872 113" fill="none" xmlns="http://www.w3.org/2000/svg">
<path d="M581.01 0H762.53C765.17 0 767.38 0.900002 769.17 2.69C770.96 4.48 771.86 6.69999 771.86 9.32999C771.86 12.11 771 14.38 769.28 16.14C767.56 17.9 765.31 18.77 762.53 18.77H581.01C576.03 18.77 571.68 20.02 567.94 22.5C564.21 24.99 562.34 28.43 562.34 32.82C562.34 36.92 564.28 40.29 568.16 42.92C572.04 45.55 576.32 46.87 581.01 46.87H665.33C675.28 46.87 684.03 50.02 691.57 56.31C699.11 62.61 702.88 70.44 702.88 79.81C702.88 89.18 699.13 96.96 691.63 103.14C684.13 109.33 675.36 112.42 665.33 112.42H517.49C514.86 112.42 512.64 111.52 510.85 109.73C509.06 107.94 508.16 105.72 508.16 103.09C508.16 100.53 509.09 98.31 510.96 96.45C512.83 94.58 515 93.65 517.49 93.65H665.33C670.38 93.65 674.77 92.41 678.5 89.92C682.23 87.43 684.1 83.99 684.1 79.6C684.1 75.36 682.2 71.95 678.39 69.39C674.58 66.83 670.23 65.55 665.32 65.55H581.01C571.06 65.55 562.33 62.4 554.82 56.11C547.32 49.82 543.57 41.98 543.57 32.61C543.57 23.31 547.34 15.56 554.88 9.32999C562.42 3.10999 571.13 0 581.01 0Z" fill="white"/>
<path d="M150.07 103.42C150.07 105.03 149.74 106.46 149.08 107.7C148.42 108.94 147.63 109.84 146.72 110.39C145.8 110.94 144.87 111.4 143.92 111.76C142.97 112.13 142.16 112.35 141.51 112.42H140.52C140.3 112.42 139.97 112.4 139.53 112.37C139.09 112.33 138.34 112.13 137.28 111.77C136.22 111.4 135.28 110.95 134.48 110.4C133.67 109.85 132.94 108.96 132.28 107.71C131.62 106.47 131.29 105.04 131.29 103.43V65.55H84.63H65.42H18.76V103.43C18.76 105.04 18.45 106.47 17.83 107.71C17.21 108.95 16.44 109.85 15.52 110.4C14.6 110.95 13.69 111.41 12.78 111.77C11.86 112.14 11.11 112.36 10.53 112.43H9.54C9.25 112.43 8.9 112.41 8.5 112.38C8.1 112.34 7.35 112.14 6.25 111.78C5.15 111.41 4.18 110.96 3.34 110.41C2.5 109.86 1.73 108.97 1.04 107.72C0.340001 106.48 0 105.05 0 103.44V37.45C0 27.13 3.66 18.31 10.98 10.99C18.3 3.66999 27.12 0.00997925 37.44 0.00997925H46.66H103.42H112.64C122.96 0.00997925 131.78 3.66999 139.1 10.99C146.42 18.31 150.08 27.13 150.08 37.45V103.42H150.07ZM84.64 46.88H131.3V37.66C131.3 32.46 129.47 28.04 125.81 24.38C122.15 20.72 117.76 18.89 112.64 18.89H75.09H37.43C32.31 18.89 27.91 20.72 24.26 24.38C20.6 28.04 18.77 32.47 18.77 37.66V46.88H65.43H84.64Z" fill="white"/>
<path d="M487.23 103.42C487.23 105.03 486.9 106.46 486.24 107.7C485.58 108.94 484.79 109.84 483.88 110.39C482.96 110.94 482.03 111.4 481.08 111.76C480.13 112.13 479.32 112.35 478.67 112.42H477.68C477.46 112.42 477.13 112.4 476.69 112.37C476.25 112.33 475.5 112.13 474.44 111.77C473.38 111.4 472.44 110.95 471.64 110.4C470.83 109.85 470.1 108.96 469.44 107.71C468.78 106.47 468.45 105.04 468.45 103.43V65.55H421.79H402.58H355.92V103.43C355.92 105.04 355.61 106.47 354.99 107.71C354.37 108.95 353.6 109.85 352.68 110.4C351.76 110.95 350.85 111.41 349.94 111.77C349.02 112.14 348.27 112.36 347.69 112.43H346.7C346.41 112.43 346.06 112.41 345.66 112.38C345.26 112.34 344.51 112.14 343.41 111.78C342.31 111.41 341.34 110.96 340.5 110.41C339.66 109.86 338.89 108.97 338.2 107.72C337.5 106.48 337.16 105.05 337.16 103.44V37.45C337.16 27.13 340.82 18.31 348.14 10.99C355.46 3.66999 364.28 0.00997925 374.6 0.00997925H383.81H440.57H449.79C460.11 0.00997925 468.93 3.66999 476.25 10.99C483.57 18.31 487.23 27.13 487.23 37.45V103.42ZM421.8 46.88H468.46V37.66C468.46 32.46 466.63 28.04 462.97 24.38C459.31 20.72 454.92 18.89 449.8 18.89H412.25H374.59C369.47 18.89 365.07 20.72 361.42 24.38C357.76 28.04 355.93 32.47 355.93 37.66V46.88H402.59H421.8Z" fill="white"/>
<path d="M309.05 93.65C311.69 93.65 313.79 94.44 315.36 96.01C316.93 97.58 317.87 99.18 318.16 100.79L318.6 103.1C318.6 103.32 318.56 103.65 318.49 104.09C318.42 104.53 318.18 105.28 317.78 106.34C317.38 107.4 316.86 108.35 316.24 109.19C315.62 110.03 314.66 110.78 313.38 111.44C312.1 112.1 310.65 112.43 309.04 112.43H187.62C182.93 112.43 178.62 110.47 174.66 106.56C170.71 102.64 168.73 98.34 168.73 93.66V9.34C168.73 6.56 169.53 4.39999 171.15 2.85999C172.76 1.31999 174.37 0.43998 175.98 0.22998L178.28 0.00997925C178.5 0.00997925 178.83 0.0299976 179.27 0.0599976C179.71 0.0999976 180.46 0.279985 181.52 0.609985C182.58 0.939985 183.51 1.41998 184.32 2.03998C185.12 2.65998 185.86 3.62998 186.52 4.94998C187.18 6.26998 187.51 7.81 187.51 9.56V84.33C187.51 86.75 188.5 88.91 190.47 90.81C192.45 92.71 194.57 93.67 196.84 93.67H309.05V93.65Z" fill="white"/>
<path d="M524.91 103.09C524.91 105.73 523.99 107.94 522.16 109.73C520.33 111.52 518.1 112.42 515.46 112.42C512.83 112.42 510.61 111.52 508.82 109.73C507.03 107.94 506.13 105.72 506.13 103.09V9.32999C506.13 6.98999 507.1 4.85 509.04 2.91C510.98 0.970004 513.12 0 515.46 0C517.88 0 520.02 0.950006 521.88 2.85001C523.75 4.75001 524.68 6.90999 524.68 9.32999C524.68 21.56 524.72 37.18 524.79 56.21C524.87 75.24 524.91 90.87 524.91 103.09Z" fill="#03658C"/>
<path d="M871.63 103.42C871.63 105.03 871.3 106.46 870.64 107.7C869.98 108.94 869.19 109.84 868.28 110.39C867.36 110.94 866.43 111.4 865.48 111.76C864.53 112.13 863.72 112.35 863.07 112.42H862.08C861.86 112.42 861.53 112.4 861.09 112.37C860.65 112.33 859.9 112.13 858.84 111.77C857.78 111.4 856.84 110.95 856.04 110.4C855.23 109.85 854.5 108.96 853.84 107.71C853.18 106.47 852.85 105.04 852.85 103.43V65.55H806.19H786.98H740.32V103.43C740.32 105.04 740.01 106.47 739.39 107.71C738.77 108.95 738 109.85 737.08 110.4C736.16 110.95 735.25 111.41 734.34 111.77C733.42 112.14 732.67 112.36 732.09 112.43H731.1C730.81 112.43 730.46 112.41 730.06 112.38C729.66 112.34 728.91 112.14 727.81 111.78C726.71 111.41 725.74 110.96 724.9 110.41C724.06 109.86 723.29 108.97 722.6 107.72C721.9 106.48 721.56 105.05 721.56 103.44V37.45C721.56 27.13 725.22 18.31 732.54 10.99C739.86 3.66999 748.68 0.00997925 759 0.00997925H768.22H824.98H834.2C844.52 0.00997925 853.34 3.66999 860.66 10.99C867.98 18.31 871.64 27.13 871.64 37.45V103.42H871.63ZM806.2 46.88H852.86V37.66C852.86 32.46 851.03 28.04 847.37 24.38C843.71 20.72 839.32 18.89 834.2 18.89H796.65H758.99C753.87 18.89 749.47 20.72 745.82 24.38C742.16 28.04 740.33 32.47 740.33 37.66V46.88H786.99H806.2Z" fill="#03658C"/>
<path d="M611.47 85.24C611.06 85.24 610.7 85.09 610.42 84.82L599.78 74.18C599.47 73.87 599.32 73.49 599.34 73.06C599.36 72.66 599.52 72.28 599.81 71.99C600.1 71.7 600.47 71.54 600.87 71.54C601.14 71.54 601.59 71.62 601.95 71.98L606.21 76.24L614.56 67.89L610.15 63.48V47.98L614.94 43.19L606.03 34.28L601.79 38.52C601.49 38.82 601.12 38.97 600.71 38.97C600.3 38.97 599.93 38.81 599.63 38.52C599.35 38.24 599.19 37.86 599.19 37.46C599.18 36.97 599.32 36.61 599.6 36.34L610.24 25.7C610.53 25.42 610.86 25.27 611.23 25.27C611.78 25.29 612.14 25.45 612.43 25.73C612.72 26.02 612.87 26.37 612.87 26.76C612.88 27.23 612.74 27.58 612.45 27.87L608.2 32.13L617.11 41.04L621.14 37.01H636.65L641.06 41.42L650.17 32.31L645.93 28.07C645.63 27.77 645.48 27.4 645.48 26.99C645.48 26.58 645.64 26.21 645.93 25.91C646.22 25.62 646.63 25.45 647.07 25.44C647.3 25.44 647.75 25.52 648.11 25.88L658.75 36.52C659.06 36.82 659.2 37.18 659.18 37.59C659.16 38.06 659.01 38.42 658.72 38.71C658.36 39.07 657.94 39.15 657.64 39.15C657.21 39.15 656.85 39 656.58 38.73L652.32 34.47L643.22 43.58L647.63 47.99V63.49L643.61 67.52L652.15 76.06L656.39 71.82C656.69 71.52 657.06 71.37 657.47 71.37C657.88 71.37 658.25 71.53 658.55 71.82C658.84 72.11 659 72.5 659 72.94C659 73.36 658.86 73.73 658.58 74.01L647.94 84.65C647.65 84.94 647.3 85.09 646.91 85.09C646.42 85.07 646.04 84.91 645.75 84.62C645.46 84.33 645.31 83.98 645.31 83.59C645.31 83.13 645.45 82.76 645.73 82.48L649.99 78.22L641.44 69.68L636.66 74.47H621.15L616.74 70.06L608.39 78.41L612.63 82.65C612.93 82.95 613.08 83.32 613.08 83.73C613.08 84.14 612.92 84.51 612.63 84.81C612.34 85.1 611.95 85.26 611.51 85.27H611.47V85.24Z" fill="#03658C"/>
<path d="M635.03 40.85L635.59 41.41L638.9 44.72L643.19 49.01L643.75 49.57V61.89L643.57 62.07L638.22 67.42L635.97 69.67L635.03 70.61H622.71L622.15 70.05L616.71 64.61L614.55 62.45L613.99 61.89V49.57L614.93 48.63L620.37 43.19L622.53 41.03L622.71 40.85H635.03ZM611.23 21.42C609.83 21.42 608.52 21.98 607.52 22.98L596.88 33.62C595.86 34.64 595.31 36.01 595.34 37.47C595.34 38.9 595.9 40.25 596.91 41.25C597.93 42.27 599.28 42.83 600.71 42.83C602.14 42.83 603.49 42.27 604.51 41.25L606.03 39.73L609.5 43.2L606.31 46.39V65.08L609.12 67.89L606.22 70.79L604.68 69.25C603.66 68.23 602.29 67.68 600.83 67.68C599.42 67.7 598.09 68.26 597.09 69.26C596.12 70.23 595.55 71.52 595.49 72.89C595.43 74.41 595.99 75.82 597.06 76.89L607.7 87.53C608.7 88.53 610.05 89.08 611.47 89.08C611.49 89.08 611.51 89.08 611.53 89.08C612.97 89.06 614.33 88.5 615.33 87.5C616.35 86.48 616.91 85.13 616.91 83.7C616.91 82.27 616.35 80.92 615.33 79.9L613.81 78.38L616.71 75.48L619.52 78.29H638.21L641.4 75.1L644.5 78.2L642.96 79.74C641.94 80.76 641.39 82.13 641.41 83.57C641.41 85 641.97 86.32 642.98 87.32C643.95 88.29 645.24 88.86 646.64 88.92C646.71 88.92 646.79 88.92 646.86 88.92C648.27 88.92 649.6 88.36 650.61 87.35L661.25 76.71C662.27 75.69 662.82 74.32 662.8 72.88C662.78 71.44 662.22 70.08 661.22 69.08C660.2 68.06 658.85 67.5 657.42 67.5C655.99 67.5 654.64 68.06 653.62 69.08L652.1 70.6L649 67.5L651.43 65.07V46.38L648.62 43.57L652.28 39.91L653.82 41.45C654.82 42.45 656.17 43 657.59 43C657.61 43 657.63 43 657.65 43C659.06 42.98 660.4 42.44 661.4 41.43C662.37 40.46 662.94 39.17 662.98 37.78C663.06 36.27 662.49 34.86 661.43 33.8L650.79 23.16C649.77 22.14 648.4 21.59 646.95 21.59C645.52 21.62 644.17 22.18 643.17 23.19C642.15 24.21 641.59 25.56 641.59 26.99C641.59 28.42 642.15 29.77 643.17 30.79L644.69 32.31L641.03 35.97L638.22 33.16H619.53L617.1 35.59L613.63 32.13L615.16 30.59C616.18 29.57 616.74 28.22 616.71 26.76C616.71 25.33 616.15 24.01 615.14 23.01C614.17 22.04 612.88 21.47 611.49 21.43C611.41 21.42 611.32 21.42 611.23 21.42Z" fill="#03658C"/>
</svg>
