<svg width="404" height="53" viewBox="0 0 404 53" fill="none" xmlns="http://www.w3.org/2000/svg">
<path d="M268.903 0.960083H352.915C354.137 0.960083 355.159 1.37663 355.988 2.20508C356.816 3.03354 357.233 4.06101 357.233 5.27824C357.233 6.56489 356.835 7.6155 356.039 8.43007C355.243 9.24464 354.201 9.64727 352.915 9.64727H268.903C266.598 9.64727 264.585 10.2258 262.854 11.3736C261.128 12.5261 260.262 14.1182 260.262 16.15C260.262 18.0475 261.16 19.6073 262.956 20.8245C264.752 22.0417 266.733 22.6526 268.903 22.6526H307.928C312.533 22.6526 316.583 24.1105 320.073 27.0217C323.563 29.9375 325.307 33.5614 325.307 37.8981C325.307 42.2347 323.572 45.8355 320.101 48.6958C316.629 51.5606 312.57 52.9907 307.928 52.9907H239.505C238.287 52.9907 237.26 52.5742 236.432 51.7458C235.603 50.9173 235.187 49.8898 235.187 48.6726C235.187 47.4878 235.617 46.4603 236.482 45.5995C237.348 44.734 238.352 44.3035 239.505 44.3035H307.928C310.266 44.3035 312.297 43.7296 314.024 42.5772C315.75 41.4248 316.616 39.8327 316.616 37.8009C316.616 35.8385 315.736 34.2603 313.973 33.0754C312.209 31.8906 310.196 31.2982 307.924 31.2982H268.903C264.298 31.2982 260.258 29.8403 256.782 26.9291C253.311 24.018 251.575 20.3941 251.575 16.0528C251.575 11.7485 253.32 8.16163 256.81 5.27824C260.299 2.4041 264.33 0.960083 268.903 0.960083Z" fill="black"/>
<path d="M69.4558 48.8298C69.4558 49.5749 69.303 50.2367 68.9976 50.8106C68.6921 51.3845 68.3265 51.8011 67.9053 52.0556C67.4795 52.3102 67.0491 52.5231 66.6094 52.6897C66.1697 52.861 65.7948 52.9628 65.494 52.9952H65.0358C64.934 52.9952 64.7813 52.9859 64.5776 52.972C64.374 52.9535 64.0269 52.861 63.5363 52.6943C63.0457 52.5231 62.6106 52.3148 62.2404 52.0603C61.8655 51.8057 61.5276 51.3938 61.2222 50.8153C60.9167 50.2414 60.764 49.5796 60.764 48.8344V31.2981H39.1687H30.2778H8.68255V48.8298C8.68255 49.5749 8.53907 50.2367 8.25212 50.8106C7.96517 51.3845 7.6088 51.8011 7.183 52.0556C6.75721 52.3102 6.33604 52.5231 5.91487 52.6897C5.48907 52.861 5.14196 52.9628 4.87352 52.9952H4.41533C4.28111 52.9952 4.11912 52.9859 3.93399 52.972C3.74886 52.9535 3.40175 52.861 2.89264 52.6943C2.38354 52.5231 1.9346 52.3148 1.54583 52.0603C1.15705 51.8057 0.800683 51.3938 0.481336 50.8153C0.15736 50.2414 0 49.5796 0 48.8344V18.2927C0 13.5164 1.69393 9.43431 5.08179 6.04645C8.46965 2.65858 12.5517 0.964661 17.3281 0.964661H21.5953H47.8651H52.1323C56.9087 0.964661 60.9907 2.65858 64.3786 6.04645C67.7665 9.43431 69.4604 13.5164 69.4604 18.2927V48.8298H69.4558ZM39.1733 22.6618H60.7686V18.3946C60.7686 15.9879 59.9216 13.9422 58.2277 12.2483C56.5338 10.5543 54.502 9.70736 52.1323 9.70736H34.7533H17.3234C14.9538 9.70736 12.9174 10.5543 11.2281 12.2483C9.53414 13.9422 8.68718 15.9925 8.68718 18.3946V22.6618H30.2825H39.1733Z" fill="black"/>
<path d="M225.5 48.8298C225.5 49.5749 225.348 50.2367 225.042 50.8106C224.737 51.3845 224.371 51.8011 223.95 52.0556C223.524 52.3102 223.094 52.5231 222.654 52.6897C222.214 52.861 221.839 52.9628 221.539 52.9952H221.08C220.979 52.9952 220.826 52.9859 220.622 52.972C220.419 52.9535 220.071 52.861 219.581 52.6943C219.09 52.5231 218.655 52.3148 218.285 52.0603C217.91 51.8057 217.572 51.3938 217.267 50.8153C216.961 50.2414 216.809 49.5796 216.809 48.8344V31.2981H195.213H186.322H164.727V48.8298C164.727 49.5749 164.584 50.2367 164.297 50.8106C164.01 51.3845 163.653 51.8011 163.228 52.0556C162.802 52.3102 162.381 52.5231 161.959 52.6897C161.534 52.861 161.186 52.9628 160.918 52.9952H160.46C160.326 52.9952 160.164 52.9859 159.978 52.972C159.793 52.9535 159.446 52.861 158.937 52.6943C158.428 52.5231 157.979 52.3148 157.59 52.0603C157.202 51.8057 156.845 51.3938 156.526 50.8153C156.202 50.2414 156.044 49.5796 156.044 48.8344V18.2927C156.044 13.5164 157.738 9.43431 161.126 6.04645C164.514 2.65858 168.596 0.964661 173.373 0.964661H177.635H203.905H208.172C212.949 0.964661 217.031 2.65858 220.419 6.04645C223.806 9.43431 225.5 13.5164 225.5 18.2927V48.8298ZM195.218 22.6618H216.813V18.3946C216.813 15.9879 215.966 13.9422 214.272 12.2483C212.578 10.5543 210.547 9.70736 208.177 9.70736H190.798H173.368C170.998 9.70736 168.962 10.5543 167.273 12.2483C165.579 13.9422 164.732 15.9925 164.732 18.3946V22.6618H186.327H195.218Z" fill="black"/>
<path d="M143.035 44.3081C144.257 44.3081 145.229 44.6738 145.955 45.4004C146.682 46.127 147.117 46.8676 147.251 47.6127L147.455 48.6818C147.455 48.7837 147.436 48.9364 147.404 49.14C147.371 49.3437 147.26 49.6908 147.075 50.1814C146.89 50.672 146.649 51.1117 146.362 51.5004C146.076 51.8892 145.631 52.2363 145.039 52.5418C144.446 52.8473 143.775 53 143.03 53H86.8342C84.6635 53 82.6688 52.0929 80.836 50.2832C79.0078 48.4689 78.0915 46.4788 78.0915 44.3128V5.28745C78.0915 4.0008 78.4617 3.00111 79.2115 2.28836C79.9566 1.57562 80.7018 1.16833 81.4469 1.07114L82.5114 0.969299C82.6132 0.969299 82.766 0.978578 82.9696 0.992463C83.1732 1.01098 83.5204 1.09428 84.011 1.24701C84.5015 1.39974 84.932 1.62189 85.3069 1.90885C85.6771 2.1958 86.0196 2.64472 86.3251 3.25565C86.6305 3.86658 86.7833 4.57935 86.7833 5.38929V39.9946C86.7833 41.1147 87.2415 42.1144 88.1532 42.9937C89.0696 43.8731 90.0508 44.3174 91.1014 44.3174H143.035V44.3081Z" fill="black"/>
<path d="M242.939 48.677C242.939 49.8989 242.514 50.9217 241.667 51.7502C240.82 52.5786 239.788 52.9952 238.566 52.9952C237.349 52.9952 236.321 52.5786 235.493 51.7502C234.664 50.9217 234.248 49.8943 234.248 48.677V5.28278C234.248 4.19977 234.697 3.20934 235.594 2.31146C236.492 1.41359 237.483 0.964661 238.566 0.964661C239.686 0.964661 240.676 1.40433 241.537 2.28369C242.403 3.16306 242.833 4.16275 242.833 5.28278C242.833 10.9431 242.851 18.1724 242.884 26.9799C242.921 35.7874 242.939 43.0213 242.939 48.677Z" fill="#5C8EF2"/>
<path d="M403.41 48.8298C403.41 49.5749 403.257 50.2367 402.951 50.8106C402.646 51.3845 402.28 51.8011 401.859 52.0556C401.433 52.3102 401.003 52.5231 400.563 52.6897C400.123 52.861 399.749 52.9628 399.448 52.9952H398.99C398.888 52.9952 398.735 52.9859 398.531 52.972C398.328 52.9535 397.981 52.861 397.49 52.6943C396.999 52.5231 396.564 52.3148 396.194 52.0603C395.819 51.8057 395.481 51.3938 395.176 50.8153C394.87 50.2414 394.718 49.5796 394.718 48.8344V31.2981H373.122H364.232H342.636V48.8298C342.636 49.5749 342.493 50.2367 342.206 50.8106C341.919 51.3845 341.563 51.8011 341.137 52.0556C340.711 52.3102 340.29 52.5231 339.869 52.6897C339.443 52.861 339.096 52.9628 338.827 52.9952H338.369C338.235 52.9952 338.073 52.9859 337.888 52.972C337.703 52.9535 337.355 52.861 336.846 52.6943C336.337 52.5231 335.888 52.3148 335.5 52.0603C335.111 51.8057 334.754 51.3938 334.435 50.8153C334.111 50.2414 333.954 49.5796 333.954 48.8344V18.2927C333.954 13.5164 335.648 9.43431 339.036 6.04645C342.423 2.65858 346.505 0.964661 351.282 0.964661H355.549H381.819H386.086C390.862 0.964661 394.944 2.65858 398.332 6.04645C401.72 9.43431 403.414 13.5164 403.414 18.2927V48.8298H403.41ZM373.127 22.6618H394.722V18.3946C394.722 15.9879 393.875 13.9422 392.181 12.2483C390.488 10.5543 388.456 9.70736 386.086 9.70736H368.707H351.277C348.908 9.70736 346.871 10.5543 345.182 12.2483C343.488 13.9422 342.641 15.9925 342.641 18.3946V22.6618H364.236H373.127Z" fill="#5C8EF2"/>
<path d="M283.002 40.411C282.812 40.411 282.645 40.3416 282.516 40.2166L277.591 35.2922C277.448 35.1487 277.378 34.9728 277.388 34.7738C277.397 34.5887 277.471 34.4128 277.605 34.2786C277.739 34.1444 277.911 34.0703 278.096 34.0703C278.221 34.0703 278.429 34.1073 278.596 34.274L280.567 36.2456L284.432 32.381L282.391 30.34V23.1662L284.608 20.9493L280.484 16.8256L278.522 18.7879C278.383 18.9268 278.211 18.9962 278.022 18.9962C277.832 18.9962 277.661 18.9221 277.522 18.7879C277.392 18.6583 277.318 18.4825 277.318 18.2973C277.314 18.0705 277.378 17.9039 277.508 17.779L282.432 12.8546C282.567 12.725 282.719 12.6555 282.891 12.6555C283.145 12.6648 283.312 12.7388 283.446 12.8684C283.58 13.0026 283.65 13.1646 283.65 13.3451C283.654 13.5627 283.589 13.7247 283.455 13.8589L281.488 15.8305L285.612 19.9542L287.477 18.0891H294.656L296.697 20.1301L300.913 15.9138L298.951 13.9514C298.812 13.8126 298.742 13.6413 298.742 13.4516C298.742 13.2618 298.816 13.0906 298.951 12.9517C299.085 12.8175 299.275 12.7388 299.478 12.7342C299.585 12.7342 299.793 12.7712 299.96 12.9379L304.884 17.8623C305.028 18.0011 305.092 18.1677 305.083 18.3575C305.074 18.575 305.004 18.7416 304.87 18.8759C304.704 19.0425 304.509 19.0795 304.37 19.0795C304.171 19.0795 304.005 19.0101 303.88 18.8851L301.908 16.9135L297.696 21.1298L299.737 23.1709V30.3446L297.877 32.2098L301.829 36.1623L303.792 34.1999C303.931 34.0611 304.102 33.9917 304.292 33.9917C304.481 33.9917 304.653 34.0657 304.791 34.1999C304.926 34.3341 305 34.5146 305 34.7183C305 34.9127 304.935 35.0839 304.805 35.2135L299.881 40.1379C299.747 40.2721 299.585 40.3416 299.404 40.3416C299.177 40.3323 299.002 40.2583 298.867 40.124C298.733 39.9898 298.664 39.8278 298.664 39.6473C298.664 39.4344 298.728 39.2632 298.858 39.1336L300.83 37.162L296.873 33.2095L294.66 35.4264H287.482L285.441 33.3854L281.576 37.2499L283.539 39.2123C283.677 39.3511 283.747 39.5224 283.747 39.7121C283.747 39.9019 283.673 40.0731 283.539 40.212C283.404 40.3462 283.224 40.4202 283.02 40.4249H283.002V40.411Z" fill="#5C8EF2"/>
<path d="M293.905 19.8709L294.165 20.1301L295.696 21.6621L297.682 23.6476L297.941 23.9068V29.6087L297.858 29.692L295.382 32.1681L294.34 33.2095L293.905 33.6445H288.203L287.944 33.3854L285.426 30.8676L284.427 29.8679L284.168 29.6087V23.9068L284.603 23.4717L287.12 20.9539L288.12 19.9542L288.203 19.8709H293.905V19.8709ZM282.89 10.8783C282.242 10.8783 281.636 11.1375 281.173 11.6003L276.249 16.5247C275.777 16.9968 275.522 17.6309 275.536 18.3066C275.536 18.9684 275.795 19.5932 276.262 20.0561C276.735 20.5282 277.359 20.7873 278.021 20.7873C278.683 20.7873 279.308 20.5282 279.78 20.0561L280.483 19.3526L282.089 20.9586L280.613 22.435V31.0851L281.914 32.3856L280.571 33.7278L279.859 33.0151C279.387 32.543 278.752 32.2885 278.077 32.2885C277.424 32.2977 276.809 32.5569 276.346 33.0197C275.897 33.4686 275.633 34.0657 275.605 34.6998C275.577 35.4032 275.837 36.0558 276.332 36.551L281.256 41.4755C281.719 41.9383 282.344 42.1928 283.001 42.1928C283.01 42.1928 283.02 42.1928 283.029 42.1928C283.695 42.1836 284.325 41.9244 284.788 41.4616C285.26 40.9895 285.519 40.3647 285.519 39.7029C285.519 39.041 285.26 38.4162 284.788 37.9441L284.084 37.2407L285.426 35.8985L286.727 37.199H295.377L296.854 35.7226L298.288 37.1573L297.576 37.8701C297.103 38.3422 296.849 38.9763 296.858 39.6427C296.858 40.3046 297.117 40.9155 297.585 41.3783C298.034 41.8272 298.631 42.091 299.279 42.1188C299.311 42.1188 299.348 42.1188 299.381 42.1188C300.033 42.1188 300.649 41.8596 301.116 41.3922L306.041 36.4677C306.513 35.9957 306.767 35.3616 306.758 34.6951C306.749 34.0287 306.49 33.3992 306.027 32.9364C305.555 32.4643 304.93 32.2052 304.268 32.2052C303.606 32.2052 302.981 32.4643 302.509 32.9364L301.806 33.6399L300.371 32.2052L301.496 31.0805V22.4304L300.195 21.1298L301.889 19.4359L302.602 20.1486C303.065 20.6114 303.689 20.866 304.347 20.866C304.356 20.866 304.365 20.866 304.374 20.866C305.027 20.8568 305.647 20.6068 306.11 20.1394C306.559 19.6904 306.823 19.0934 306.841 18.4501C306.878 17.7512 306.614 17.0986 306.124 16.608L301.199 11.6836C300.727 11.2115 300.093 10.957 299.422 10.957C298.76 10.9709 298.136 11.23 297.673 11.6975C297.201 12.1696 296.941 12.7944 296.941 13.4562C296.941 14.1181 297.201 14.7429 297.673 15.2149L298.376 15.9184L296.682 17.6124L295.382 16.3118H286.732L285.607 17.4365L284.001 15.8351L284.709 15.1224C285.181 14.6503 285.44 14.0255 285.426 13.3498C285.426 12.6879 285.167 12.077 284.7 11.6142C284.251 11.1652 283.654 10.9014 283.01 10.8829C282.973 10.8783 282.932 10.8783 282.89 10.8783Z" fill="#5C8EF2"/>
</svg>
